<svg width="189" height="49" viewBox="0 0 189 49" fill="none" xmlns="http://www.w3.org/2000/svg">
<path d="M65.5215 30.9676C66.3292 30.1963 65.8833 28.8527 64.7673 28.6939L56.1464 27.4666C55.9295 27.4366 55.7231 27.3547 55.5446 27.2278C55.3662 27.1008 55.2211 26.9327 55.1217 26.7376L51.2663 19.0854C50.7671 18.0945 49.3249 18.0945 48.8259 19.0854L44.9703 26.7376C44.871 26.9327 44.7259 27.1008 44.5475 27.2278C44.3692 27.3547 44.1627 27.4367 43.9459 27.4666L35.3247 28.6939C34.2087 28.8527 33.763 30.1963 34.5705 30.9676L40.8089 36.9239C40.9663 37.0731 41.0843 37.2589 41.1526 37.4648C41.2208 37.6707 41.2372 37.8902 41.2001 38.1039L39.7276 46.5145C39.5368 47.6033 40.7035 48.4338 41.7021 47.9196L49.4127 43.9487C49.6087 43.8481 49.8257 43.7956 50.046 43.7956C50.2663 43.7956 50.4833 43.8481 50.6793 43.9487L58.3902 47.9196C59.3885 48.4338 60.5552 47.6033 60.3647 46.5145L58.8919 38.1039C58.8549 37.8902 58.8713 37.6707 58.9396 37.4648C59.0079 37.2589 59.126 37.0731 59.2833 36.9239L65.5215 30.9676Z" fill="#FFAE00"/>
<path d="M154.315 30.9676C155.122 30.1963 154.676 28.8527 153.56 28.6939L144.939 27.4666C144.722 27.4366 144.516 27.3547 144.338 27.2277C144.159 27.1008 144.014 26.9326 143.915 26.7376L140.059 19.0854C139.56 18.0945 138.118 18.0945 137.619 19.0854L133.763 26.7376C133.664 26.9327 133.519 27.1009 133.34 27.2278C133.162 27.3548 132.956 27.4367 132.739 27.4666L124.118 28.6939C123.002 28.8527 122.556 30.1963 123.364 30.9676L129.602 36.9239C129.759 37.0731 129.877 37.2589 129.946 37.4648C130.014 37.6706 130.03 37.8902 129.993 38.1039L128.52 46.5145C128.33 47.6033 129.497 48.4338 130.495 47.9196L138.206 43.9487C138.402 43.8481 138.619 43.7956 138.839 43.7956C139.059 43.7956 139.276 43.8481 139.472 43.9487L147.183 47.9196C148.181 48.4338 149.348 47.6033 149.157 46.5145L147.685 38.1039C147.648 37.8902 147.664 37.6706 147.733 37.4648C147.801 37.2589 147.919 37.0731 148.076 36.9239L154.315 30.9676Z" fill="#FFAE00"/>
<path d="M188.088 30.9676C188.895 30.1963 188.45 28.8527 187.334 28.6939L178.713 27.4666C178.496 27.4366 178.289 27.3547 178.111 27.2277C177.933 27.1008 177.788 26.9326 177.688 26.7376L173.833 19.0854C173.334 18.0945 171.891 18.0945 171.392 19.0854L167.537 26.7376C167.437 26.9327 167.292 27.1009 167.114 27.2278C166.935 27.3548 166.729 27.4367 166.512 27.4666L157.891 28.6939C156.775 28.8527 156.329 30.1963 157.137 30.9676L163.375 36.9239C163.533 37.0731 163.651 37.2589 163.719 37.4648C163.787 37.6706 163.804 37.8902 163.767 38.1039L162.294 46.5145C162.103 47.6033 163.27 48.4338 164.268 47.9196L171.979 43.9487C172.175 43.8481 172.392 43.7956 172.613 43.7956C172.833 43.7956 173.05 43.8481 173.246 43.9487L180.956 47.9196C181.955 48.4338 183.122 47.6033 182.931 46.5145L181.458 38.1039C181.421 37.8902 181.438 37.6706 181.506 37.4648C181.574 37.2589 181.692 37.0731 181.85 36.9239L188.088 30.9676Z" fill="#FFAE00"/>
<path d="M31.3634 30.9676C32.1709 30.1963 31.7252 28.8527 30.6092 28.6939L21.9881 27.4666C21.7712 27.4366 21.5648 27.3547 21.3864 27.2277C21.208 27.1008 21.063 26.9326 20.9636 26.7376L17.1083 19.0854C16.609 18.0945 15.1669 18.0945 14.6676 19.0854L10.8122 26.7376C10.7128 26.9327 10.5677 27.1009 10.3893 27.2278C10.2109 27.3548 10.0044 27.4367 9.78751 27.4666L1.16661 28.6939C0.0506 28.8527 -0.395323 30.1963 0.412461 30.9676L6.65057 36.9239C6.80801 37.0731 6.92614 37.2589 6.99444 37.4648C7.06274 37.6706 7.07909 37.8902 7.04205 38.1039L5.56926 46.5145C5.37872 47.6033 6.54543 48.4338 7.54375 47.9196L15.2547 43.9487C15.4506 43.8481 15.6677 43.7956 15.8879 43.7956C16.1082 43.7956 16.3253 43.8481 16.5212 43.9487L24.2318 47.9196C25.2301 48.4338 26.3971 47.6033 26.2063 46.5145L24.7338 38.1039C24.6967 37.8902 24.7131 37.6706 24.7814 37.4648C24.8497 37.2589 24.9678 37.0731 25.1253 36.9239L31.3634 30.9676Z" fill="#FFAE00"/>
<path d="M119.465 20.4136C120.771 19.1668 120.05 16.9943 118.245 16.7374L104.306 14.7533C103.589 14.6513 102.97 14.2102 102.649 13.5743L96.4152 1.20105C95.6082 -0.400635 93.2761 -0.400635 92.4692 1.20105L86.2353 13.5743C85.9148 14.2102 85.2954 14.6513 84.5787 14.7533L70.6393 16.7374C68.8345 16.9943 68.114 19.1668 69.4197 20.4136L79.5065 30.0448C79.7609 30.286 79.9518 30.5864 80.0622 30.9192C80.1726 31.252 80.1991 31.6069 80.1392 31.9524L77.758 45.5518C77.4498 47.3123 79.3365 48.6551 80.9507 47.8238L93.4184 41.4032C93.7351 41.2405 94.0861 41.1556 94.4422 41.1556C94.7983 41.1556 95.1493 41.2405 95.466 41.4032L107.934 47.8238C109.548 48.6551 111.435 47.3123 111.126 45.5518L108.745 31.9524C108.685 31.6069 108.712 31.2519 108.822 30.9191C108.933 30.5863 109.124 30.286 109.378 30.0448L119.465 20.4136Z" fill="#FFAE00"/>
</svg>
