<svg width="58" height="58" viewBox="0 0 58 58" fill="none" xmlns="http://www.w3.org/2000/svg">
<circle cx="29" cy="29" r="29" fill="#0AA89E" fill-opacity="0.19"/>
<circle cx="29" cy="29" r="2.15234" fill="#0AA89E" fill-opacity="0.19"/>
<g clip-path="url(#clip0_61_232)">
<path d="M29.66 11.0514L30.6632 13.066L32.8108 13.4384C33.4049 13.5417 33.6411 14.2998 33.2187 14.7469L31.6911 16.3638L32.0153 18.6083C32.1053 19.229 31.4865 19.6977 30.9475 19.4171L29 18.4019L27.0525 19.4171C26.5136 19.6977 25.8954 19.2296 25.9847 18.6083L26.309 16.3638L24.7814 14.7469C24.359 14.2998 24.5952 13.5417 25.1893 13.4384L27.3369 13.066L28.3401 11.0514C28.3993 10.9265 28.4927 10.8209 28.6095 10.747C28.7264 10.673 28.8618 10.6338 29 10.6338C29.1383 10.6338 29.2737 10.673 29.3905 10.747C29.5073 10.8209 29.6008 10.9265 29.66 11.0514ZM18.26 16.1181L19.2632 18.1327L21.4108 18.5051C22.0049 18.6083 22.2411 19.3664 21.8187 19.8136L20.2911 21.4305L20.6153 23.675C20.7053 24.2957 20.0865 24.7643 19.5475 24.4838L17.6 23.4685L15.6525 24.4838C15.1136 24.7643 14.4954 24.2963 14.5847 23.675L14.909 21.4305L13.3814 19.8136C12.959 19.3664 13.1952 18.6083 13.7893 18.5051L15.9369 18.1327L16.9401 16.1181C16.9993 15.9931 17.0927 15.8876 17.2095 15.8136C17.3264 15.7397 17.4618 15.7005 17.6 15.7005C17.7383 15.7005 17.8737 15.7397 17.9905 15.8136C18.1073 15.8876 18.2008 15.9931 18.26 16.1181ZM41.06 16.1181L42.0632 18.1327L44.2108 18.5051C44.8049 18.6083 45.0411 19.3664 44.6187 19.8136L43.0911 21.4305L43.4153 23.675C43.5053 24.2957 42.8865 24.7643 42.3475 24.4838L40.4 23.4685L38.4525 24.4838C37.9136 24.7643 37.2954 24.2963 37.3847 23.675L37.709 21.4305L36.1814 19.8136C35.759 19.3664 35.9952 18.6083 36.5893 18.5051L38.7369 18.1327L39.7401 16.1181C39.7993 15.9931 39.8927 15.8876 40.0095 15.8136C40.1264 15.7397 40.2618 15.7005 40.4 15.7005C40.5383 15.7005 40.6737 15.7397 40.7905 15.8136C40.9073 15.8876 41.0008 15.9931 41.06 16.1181Z" fill="#F9C82B"/>
<path d="M22.2866 37.4868C20.564 39.2095 19.5 41.5781 19.5 44.2001C19.5 44.5485 19.215 44.8335 18.8666 44.8335H11.2666C10.9183 44.8335 10.6333 44.5485 10.6333 44.2001C10.6333 39.1335 12.6916 34.5481 16.0166 31.2168H16.65L22.0333 36.6001L22.2866 37.4868Z" fill="#D7342C"/>
<path d="M28.9999 25.8335L29.6333 26.4668V34.0668L28.9999 34.7002C26.3779 34.7002 24.0093 35.7642 22.2866 37.4868L16.0166 31.2168C19.3479 27.8918 23.9333 25.8335 28.9999 25.8335Z" fill="#E99E32"/>
<path d="M41.9833 31.2168L42.3 32.1668L36.6 37.8668L35.7133 37.4868C33.9907 35.7642 31.622 34.7002 29 34.7002V25.8335C34.0667 25.8335 38.652 27.8918 41.9833 31.2168Z" fill="#F9C82B"/>
<path d="M47.3666 44.2001C47.3666 44.5485 47.0816 44.8335 46.7333 44.8335H39.1333C38.7849 44.8335 38.4999 44.5485 38.4999 44.2001C38.4999 41.5781 37.4359 39.2095 35.7133 37.4868L41.9833 31.2168C45.3083 34.5481 47.3666 39.1335 47.3666 44.2001Z" fill="#2AA869"/>
<path d="M31.356 45.7581C34.396 44.1114 39.1777 41.2741 42.7877 39.1144C43.4463 38.7154 42.984 37.7211 42.262 37.9681C38.2783 39.3361 33.0343 41.1664 29.817 42.4394L31.356 45.7581Z" fill="#0A365E"/>
<path d="M29 47.367C30.3991 47.367 31.5333 46.2327 31.5333 44.8336C31.5333 43.4345 30.3991 42.3003 29 42.3003C27.6009 42.3003 26.4667 43.4345 26.4667 44.8336C26.4667 46.2327 27.6009 47.367 29 47.367Z" fill="#06293F"/>
</g>
<defs>
<clipPath id="clip0_61_232">
<rect width="38" height="38" fill="white" transform="translate(10 10)"/>
</clipPath>
</defs>
</svg>
