<svg width="32" height="32" viewBox="0 0 32 32" fill="none" xmlns="http://www.w3.org/2000/svg">
<rect x="0.25" y="0.25" width="31.161" height="31.161" rx="5.75" fill="white" stroke="#FC0005" stroke-width="0.5"/>
<path fill-rule="evenodd" clip-rule="evenodd" d="M12.6563 6.55329C12.6563 6.40668 12.7145 6.26609 12.8182 6.1624C12.9218 6.05872 13.0624 6.00041 13.209 6.00031L18.7357 6C18.8823 6.00034 19.0228 6.0588 19.1264 6.16257C19.23 6.26635 19.2883 6.40696 19.2884 6.5536V7.92045H12.6563V6.55329ZM21.7432 25.1367C21.7291 25.3522 21.6332 25.5542 21.475 25.7013C21.3169 25.8484 21.1085 25.9295 20.8925 25.928H10.9886C10.7727 25.9274 10.565 25.8451 10.4072 25.6977C10.2494 25.5503 10.1532 25.3487 10.138 25.1333L9.29048 12.7357H22.6477L21.7434 25.1365L21.7432 25.1367ZM23.945 11.6129H8V10.3284C8.00024 9.98778 8.13565 9.66113 8.37651 9.42022C8.61737 9.17931 8.94398 9.04383 9.28464 9.04352L22.6602 9.04309C23.0008 9.04362 23.3273 9.17922 23.5681 9.42016C23.8089 9.66109 23.9443 9.98769 23.9446 10.3283V11.6128L23.945 11.6129ZM13.4051 22.9725C13.4051 23.0462 13.4196 23.1192 13.4478 23.1873C13.4761 23.2554 13.5174 23.3173 13.5695 23.3694C13.6217 23.4216 13.6835 23.4629 13.7516 23.4911C13.8197 23.5193 13.8927 23.5339 13.9665 23.5339C14.0402 23.5339 14.1132 23.5193 14.1813 23.4911C14.2494 23.4629 14.3113 23.4216 14.3634 23.3694C14.4155 23.3173 14.4569 23.2554 14.4851 23.1873C14.5133 23.1192 14.5278 23.0462 14.5278 22.9725V15.1005C14.5266 14.9525 14.467 14.8109 14.3619 14.7066C14.2568 14.6023 14.1148 14.5438 13.9668 14.5437C13.8187 14.5437 13.6766 14.6021 13.5715 14.7063C13.4663 14.8105 13.4066 14.9521 13.4053 15.1001V22.9725H13.4051ZM17.4103 22.9725C17.4103 23.1214 17.4694 23.2642 17.5747 23.3695C17.68 23.4748 17.8228 23.5339 17.9717 23.5339C18.1206 23.5339 18.2634 23.4748 18.3687 23.3695C18.474 23.2642 18.5331 23.1214 18.5331 22.9725V15.1005C18.5319 14.9525 18.4723 14.8109 18.3672 14.7066C18.2621 14.6023 18.12 14.5437 17.972 14.5436C17.8239 14.5436 17.6818 14.6021 17.5766 14.7063C17.4715 14.8105 17.4117 14.9521 17.4105 15.1001L17.4103 22.9725Z" fill="#FC0005"/>
</svg>
