<svg width="75" height="46" viewBox="0 0 75 46" fill="none" xmlns="http://www.w3.org/2000/svg">
<rect x="0.5" y="0.5" width="74" height="45" rx="3.5" fill="white" stroke="#0AA89E"/>
<path d="M48.3729 10H45.8775C44.6996 10 43.7076 10.7724 43.3744 11.8353C41.6152 10.6882 39.5383 10.0535 37.4072 10.0535H30.0218C29.2623 10.0535 28.5416 10.3288 27.9991 10.8259C27.4411 11.3382 27.1311 12.0188 27.1311 12.7529C27.1311 13.0588 27.1931 13.3571 27.3016 13.6476C26.4647 14.1218 25.899 14.9706 25.899 15.9494C25.899 16.5382 26.1082 17.0812 26.4569 17.5324C25.5967 17.9988 25 18.8629 25 19.8571C25 20.7441 25.465 21.5165 26.1702 22.0135C25.744 22.4953 25.5037 23.0841 25.5037 23.7188C25.5037 25.2024 26.7979 26.4182 28.3866 26.4182H34.0671C32.8891 28.2918 31.5484 31.5953 33.8966 34.7306C34.501 35.5412 35.3923 36 36.3455 36H36.361C37.2909 35.9924 38.1589 35.5488 38.7323 34.7688C39.0113 34.3788 39.2128 33.9659 39.3136 33.53C39.8173 31.4424 40.5535 29.7753 41.3285 28.9571C42.0027 28.2459 42.8241 27.2212 43.5294 26.1353C43.9633 26.9918 44.8468 27.5806 45.8775 27.5806H48.3729C49.8221 27.5806 51 26.4182 51 24.9882V12.5924C51 11.1624 49.8221 10 48.3729 10ZM43.2426 23.5582C42.6149 25.0265 41.2665 26.8618 40.2358 27.94C38.9261 29.3165 38.1821 31.8171 37.8489 33.1935C37.7946 33.4306 37.6784 33.6753 37.5156 33.8971C37.2212 34.2947 36.8104 34.5165 36.3532 34.5165H36.3455C35.8727 34.5165 35.4233 34.2718 35.1055 33.8512C32.7419 30.6853 35.276 27.1524 36.1052 26.1429C36.2912 25.9212 36.33 25.6153 36.206 25.3553C36.1433 25.2295 36.0462 25.1234 35.9257 25.0491C35.8052 24.9748 35.6661 24.9352 35.524 24.9347H28.3866C27.6271 24.9347 27.0072 24.3841 27.0072 23.7188C27.0072 23.4053 27.1389 23.1071 27.3869 22.8776C27.6504 22.6329 28.0069 22.5029 28.3866 22.5029H30.944C31.1433 22.5029 31.3345 22.4248 31.4755 22.2857C31.6165 22.1466 31.6957 21.9579 31.6957 21.7612C31.6957 21.5644 31.6165 21.3758 31.4755 21.2367C31.3345 21.0976 31.1433 21.0194 30.944 21.0194H28.3866C28.2083 21.0194 28.0224 21.0347 27.8441 21.0729C27.1001 21.05 26.5034 20.5147 26.5034 19.8571C26.5034 19.1918 27.1234 18.6412 27.8906 18.6412H30.665C30.8643 18.6412 31.0555 18.563 31.1965 18.4239C31.3375 18.2848 31.4167 18.0961 31.4167 17.8994C31.4167 17.7027 31.3375 17.514 31.1965 17.3749C31.0555 17.2358 30.8643 17.1576 30.665 17.1576H28.7896C28.0224 17.1576 27.4024 16.6147 27.4024 15.9494C27.4024 15.2765 28.0224 14.7335 28.7896 14.7335H30.107C30.5177 14.7335 30.8587 14.3971 30.8587 13.9918C30.8587 13.795 30.7795 13.6064 30.6385 13.4673C30.4976 13.3282 30.3064 13.25 30.107 13.25H28.7586C28.6888 13.1124 28.6346 12.9518 28.6346 12.7529C28.6346 12.4394 28.7741 12.1412 29.0221 11.9118C29.2855 11.6671 29.642 11.5371 30.0218 11.5371H37.4072C39.5383 11.5371 41.592 12.2635 43.2426 13.5788V23.5582ZM49.4966 24.9882C49.4966 25.6 48.9928 26.0971 48.3729 26.0971H45.8775C45.2575 26.0971 44.7461 25.6 44.7461 24.9882V12.5924C44.7461 11.9806 45.2575 11.4835 45.8775 11.4835H48.3729C48.9928 11.4835 49.4966 11.9806 49.4966 12.5924V24.9882Z" fill="#2B2E63"/>
<path d="M49.4966 12.5922V24.9881C49.4966 25.5999 48.9929 26.0969 48.3729 26.0969H45.8775C45.2576 26.0969 44.7461 25.5999 44.7461 24.9881V12.5922C44.7461 11.9805 45.2576 11.4834 45.8775 11.4834H48.3729C48.9929 11.4834 49.4966 11.9805 49.4966 12.5922Z" fill="#F45742"/>
<path d="M48.3729 11.4834H45.8775C45.2576 11.4834 44.7461 11.9805 44.7461 12.5922V24.9881C44.7461 25.5999 45.2576 26.0969 45.8775 26.0969H48.3729C48.9929 26.0969 49.4966 25.5999 49.4966 24.9881V12.5922C49.4966 11.9805 48.9929 11.4834 48.3729 11.4834ZM48.7217 24.9881C48.7217 25.1793 48.5667 25.3322 48.3729 25.3322H45.8775C45.6838 25.3322 45.5211 25.1716 45.5211 24.9881V12.5922C45.5211 12.4087 45.6838 12.2481 45.8775 12.2481H48.3729C48.5667 12.2481 48.7217 12.401 48.7217 12.5922V24.9881Z" fill="#A71400"/>
<path d="M43.2431 13.5789V23.5583C42.6154 25.0265 41.2669 26.8618 40.2362 27.9401C38.9266 29.3165 38.1826 31.8171 37.8494 33.1936C37.7951 33.4306 37.6789 33.6753 37.5161 33.8971C37.2216 34.2948 36.8109 34.5165 36.3537 34.5165H36.3459C35.8732 34.5165 35.4237 34.2718 35.106 33.8512C32.7424 30.6853 35.2765 27.1524 36.1057 26.143C36.2917 25.9212 36.3304 25.6153 36.2064 25.3553C36.1438 25.2295 36.0467 25.1234 35.9262 25.0491C35.8057 24.9748 35.6666 24.9352 35.5245 24.9348H28.3871C27.6276 24.9348 27.0076 24.3842 27.0076 23.7189C27.0076 23.4053 27.1394 23.1071 27.3874 22.8777C27.6509 22.633 28.0073 22.503 28.3871 22.503H30.9444C31.1438 22.503 31.335 22.4248 31.476 22.2857C31.617 22.1466 31.6962 21.958 31.6962 21.7612C31.6962 21.5645 31.617 21.3758 31.476 21.2367C31.335 21.0976 31.1438 21.0195 30.9444 21.0195H28.3871C28.2088 21.0195 28.0228 21.0348 27.8446 21.073C27.1006 21.0501 26.5039 20.5148 26.5039 19.8571C26.5039 19.1918 27.1239 18.6412 27.8911 18.6412H30.6655C30.8648 18.6412 31.056 18.5631 31.197 18.424C31.338 18.2849 31.4172 18.0962 31.4172 17.8995C31.4172 17.7027 31.338 17.5141 31.197 17.375C31.056 17.2358 30.8648 17.1577 30.6655 17.1577H28.79C28.0228 17.1577 27.4029 16.6148 27.4029 15.9495C27.4029 15.2765 28.0228 14.7336 28.79 14.7336H30.1075C30.5182 14.7336 30.8592 14.3971 30.8592 13.9918C30.8592 13.7951 30.78 13.6064 30.639 13.4673C30.4981 13.3282 30.3069 13.2501 30.1075 13.2501H28.759C28.6893 13.1124 28.6351 12.9518 28.6351 12.753C28.6351 12.4395 28.7745 12.1412 29.0225 11.9118C29.286 11.6671 29.6425 11.5371 30.0222 11.5371H37.4076C39.5388 11.5371 41.5924 12.2636 43.2431 13.5789Z" fill="#FFE5AB"/>
<path d="M34.2768 29.6606C34.4085 30.4559 34.734 31.2742 35.3307 32.0771C35.695 32.5665 36.1987 32.8724 36.7722 32.8418C37.2991 32.8418 37.7796 32.5895 38.1206 32.123C38.1361 32.1077 38.1438 32.0848 38.1593 32.0695C38.0276 32.49 37.9269 32.8724 37.8494 33.1936C37.7874 33.4383 37.6789 33.6677 37.5161 33.8971C37.2216 34.2948 36.8109 34.5165 36.3537 34.5165C35.8577 34.5395 35.4237 34.2795 35.106 33.8512C34.052 32.4442 33.9745 30.9606 34.2768 29.6606ZM26.9999 23.7189C26.9999 23.4053 27.1394 23.1071 27.3874 22.8777C27.6509 22.6406 28.0073 22.503 28.3871 22.503H29.937C29.5573 22.503 29.2008 22.6406 28.9373 22.8777C28.6893 23.1071 28.5498 23.4053 28.5498 23.7189C28.5498 24.3918 29.1775 24.9348 29.937 24.9348H28.3871C27.6276 24.9348 26.9999 24.3918 26.9999 23.7189ZM26.5039 19.8571C26.5039 19.1918 27.1239 18.6489 27.8911 18.6489H29.441C28.6738 18.6489 28.0538 19.1918 28.0538 19.8571C28.0538 20.4077 28.4723 20.8742 29.0458 21.0195H28.3871C28.2011 21.0195 28.0228 21.0424 27.8446 21.073C27.1006 21.0501 26.5039 20.5148 26.5039 19.8571ZM28.6351 12.753C28.6351 12.4395 28.7745 12.1412 29.0225 11.9118C29.286 11.6748 29.6425 11.5371 30.0222 11.5371H31.5722C31.1924 11.5371 30.8359 11.6748 30.5725 11.9118C30.3245 12.1412 30.185 12.4395 30.185 12.753C30.185 12.9289 30.2237 13.1353 30.2935 13.273C30.2328 13.2574 30.1702 13.2497 30.1075 13.2501H28.759C28.6893 13.1124 28.6351 12.9518 28.6351 12.753ZM27.4029 15.9495C27.4029 15.2765 28.0228 14.7336 28.79 14.7336H29.7742C29.286 14.9477 28.9528 15.4448 28.9528 15.9495C28.9528 16.6148 29.5728 17.1653 30.34 17.1653H28.79C28.0228 17.1653 27.4029 16.6148 27.4029 15.9495Z" fill="#F0D39A"/>
</svg>
