<svg width="32" height="32" viewBox="0 0 32 32" fill="none" xmlns="http://www.w3.org/2000/svg">
<rect x="0.25" y="0.25" width="31.161" height="31.161" rx="5.75" fill="white" stroke="#0AA89E" stroke-width="0.5"/>
<path d="M10.1995 20.9902H10.2851L12.564 20.7802C12.8829 20.7491 13.1784 20.6091 13.404 20.3835L22.0063 11.7812C22.4107 11.3768 22.6363 10.8401 22.6363 10.2723C22.6363 9.70451 22.4107 9.16784 22.0063 8.76339L21.4541 8.21117C20.6452 7.40227 19.2374 7.40227 18.4285 8.21117L17.3318 9.30784L9.83395 16.8057C9.60839 17.0313 9.46839 17.3268 9.44506 17.6457L9.23506 19.9246C9.21172 20.2124 9.31284 20.4924 9.51506 20.7024C9.70173 20.8891 9.94284 20.9902 10.1995 20.9902ZM19.9452 8.74784C20.1941 8.74784 20.443 8.84117 20.6296 9.03562L21.1818 9.58785C21.2727 9.67717 21.3449 9.7837 21.3942 9.90121C21.4434 10.0187 21.4688 10.1449 21.4688 10.2723C21.4688 10.3997 21.4434 10.5259 21.3942 10.6434C21.3449 10.7609 21.2727 10.8674 21.1818 10.9567L20.4974 11.6412L18.5763 9.72007L19.2607 9.03562C19.4474 8.84895 19.6963 8.74784 19.9452 8.74784ZM10.604 17.7546C10.604 17.7079 10.6273 17.669 10.6584 17.6379L17.744 10.5445L19.6652 12.4657L12.5795 19.5513C12.5795 19.5513 12.5018 19.6057 12.4629 19.6057L10.4173 19.7924L10.604 17.7468V17.7546ZM24.1919 23.4713C24.1919 23.7902 23.9274 24.0547 23.6085 24.0547H8.05282C7.73393 24.0547 7.46948 23.7902 7.46948 23.4713C7.46948 23.1524 7.73393 22.888 8.05282 22.888H23.6085C23.9274 22.888 24.1919 23.1524 24.1919 23.4713Z" fill="#0AA89E"/>
</svg>
