<svg width="23" height="23" viewBox="0 0 23 23" fill="none" xmlns="http://www.w3.org/2000/svg">
<circle cx="11.5" cy="11.5" r="10.9926" fill="#FDCB50" stroke="#052A75" stroke-width="1.01471"/>
<path d="M3.75015 10.5445C2.66315 16.5647 8.66937 20.7853 11.5001 21.985C7.10277 21.985 0.658655 18.2272 1.0141 11.1614C1.41062 3.2789 8.78243 0.68696 11.4999 1.01445C9.4616 1.34164 4.83714 4.52418 3.75015 10.5445Z" fill="#FD8F01"/>
<path d="M7.95508 6.73438C8.04573 7.01293 8.30568 7.20117 8.59863 7.20117H10.2607L8.91602 8.17871C8.67913 8.35094 8.57954 8.656 8.66992 8.93457L9.18359 10.5156L7.83887 9.53809C7.60188 9.36622 7.28086 9.36607 7.04395 9.53809L5.69922 10.5156L6.21289 8.93457C6.30338 8.65589 6.20385 8.35094 5.9668 8.17871L4.62207 7.20117H6.28418C6.57709 7.20117 6.83704 7.01286 6.92773 6.73438L7.44141 5.15332L7.95508 6.73438Z" fill="#6864F7" stroke="#052A75" stroke-width="0.676471"/>
<path d="M16.748 6.73438C16.8387 7.01293 17.0986 7.20117 17.3916 7.20117H19.0537L17.709 8.17871C17.4721 8.35094 17.3725 8.656 17.4629 8.93457L17.9766 10.5156L16.6318 9.53809C16.3948 9.36622 16.0738 9.36607 15.8369 9.53809L14.4922 10.5156L15.0059 8.93457C15.0963 8.65589 14.9968 8.35094 14.7598 8.17871L13.415 7.20117H15.0771C15.3701 7.20117 15.63 7.01286 15.7207 6.73438L16.2344 5.15332L16.748 6.73438Z" fill="#6864F7" stroke="#052A75" stroke-width="0.676471"/>
<mask id="path-5-inside-1_62_9095" fill="white">
<path d="M16.2337 13.1909C16.6073 13.1909 16.9143 13.4948 16.8704 13.8658C16.8086 14.3891 16.6749 14.9025 16.4725 15.3913C16.1835 16.089 15.76 16.7228 15.226 17.2568C14.6921 17.7907 14.0582 18.2143 13.3606 18.5032C12.663 18.7922 11.9153 18.9409 11.1602 18.9409C10.4051 18.9409 9.65735 18.7922 8.95973 18.5032C8.2621 18.2143 7.62823 17.7907 7.09429 17.2568C6.56036 16.7228 6.13681 16.089 5.84785 15.3913C5.64538 14.9025 5.51175 14.3891 5.4499 13.8658C5.40605 13.4948 5.71302 13.1909 6.08663 13.1909L11.1602 13.1909H16.2337Z"/>
</mask>
<path d="M16.2337 13.1909C16.6073 13.1909 16.9143 13.4948 16.8704 13.8658C16.8086 14.3891 16.6749 14.9025 16.4725 15.3913C16.1835 16.089 15.76 16.7228 15.226 17.2568C14.6921 17.7907 14.0582 18.2143 13.3606 18.5032C12.663 18.7922 11.9153 18.9409 11.1602 18.9409C10.4051 18.9409 9.65735 18.7922 8.95973 18.5032C8.2621 18.2143 7.62823 17.7907 7.09429 17.2568C6.56036 16.7228 6.13681 16.089 5.84785 15.3913C5.64538 14.9025 5.51175 14.3891 5.4499 13.8658C5.40605 13.4948 5.71302 13.1909 6.08663 13.1909L11.1602 13.1909H16.2337Z" fill="#DB4B86" stroke="#052A75" stroke-width="1.35294" mask="url(#path-5-inside-1_62_9095)"/>
<path d="M11.1613 18.2643C12.5142 18.2643 13.9799 17.5877 14.2054 17.2494C11.7701 15.0847 9.13189 16.3475 8.11719 17.2494C8.34268 17.5877 9.26719 18.2643 11.1613 18.2643Z" fill="#FF7DA2"/>
</svg>
