<svg width="25" height="25" viewBox="0 0 25 25" fill="none" xmlns="http://www.w3.org/2000/svg">
<path fill-rule="evenodd" clip-rule="evenodd" d="M5.47033 2.92957L4.99758 3.61561C4.93949 3.69991 4.85431 3.76179 4.75619 3.79099L3.9576 4.02854C3.79707 4.07631 3.65056 4.16237 3.53067 4.27932C3.41078 4.39626 3.32109 4.54059 3.26934 4.69987C3.21759 4.85916 3.20531 5.02864 3.23357 5.19372C3.26183 5.3588 3.32978 5.51454 3.43157 5.64754L3.93803 6.30915C4.00023 6.39044 4.03277 6.49054 4.03026 6.59286L4.00938 7.42582C4.00523 7.59325 4.04182 7.75917 4.11601 7.90932C4.19019 8.05947 4.29974 8.18936 4.43524 8.28779C4.57073 8.38623 4.72811 8.45027 4.89384 8.47441C5.05957 8.49856 5.22868 8.48207 5.38662 8.42638L6.1723 8.14923C6.26885 8.11515 6.37416 8.11515 6.47071 8.14923L7.25638 8.42638C7.41432 8.48208 7.58343 8.49856 7.74915 8.47442C7.91488 8.45028 8.07226 8.38623 8.20774 8.2878C8.34323 8.18936 8.45278 8.05947 8.52695 7.90932C8.60112 7.75917 8.6377 7.59324 8.63353 7.42582L8.61275 6.59286C8.61014 6.49053 8.64269 6.39039 8.70498 6.30915L9.21134 5.64754C9.31313 5.51454 9.38108 5.3588 9.40934 5.19372C9.4376 5.02864 9.42533 4.85916 9.37357 4.69987C9.32182 4.54059 9.23214 4.39626 9.11224 4.27932C8.99235 4.16237 8.84584 4.07631 8.68531 4.02854L7.88672 3.79099C7.7886 3.76179 7.70342 3.69991 7.64533 3.61561L7.17258 2.92957C7.07755 2.79166 6.95044 2.6789 6.80217 2.60101C6.65391 2.52312 6.48894 2.48242 6.32146 2.48242C6.15398 2.48242 5.989 2.52312 5.84074 2.60101C5.69248 2.6789 5.56536 2.79166 5.47033 2.92957Z" fill="#F4C15B"/>
<path fill-rule="evenodd" clip-rule="evenodd" d="M8.89286 13.2801L9.48313 12.2578C9.5817 12.0871 9.64568 11.8987 9.67142 11.7032C9.69716 11.5078 9.68415 11.3092 9.63312 11.1188C9.5821 10.9283 9.49408 10.7498 9.37406 10.5934C9.25405 10.4371 9.10441 10.3058 8.93369 10.2073L8.93266 10.2067C8.76195 10.1081 8.57349 10.0441 8.37804 10.0184C8.18259 9.99261 7.98398 10.0056 7.79356 10.0566C7.60313 10.1077 7.42463 10.1957 7.26824 10.3157C7.11185 10.4357 6.98063 10.5854 6.8821 10.7562L5.66215 12.8691C5.59 12.9941 5.48622 13.0978 5.36124 13.17C5.23626 13.2422 5.09448 13.2801 4.95017 13.2801H4.39033C4.34382 13.2801 4.29796 13.2911 4.25657 13.3124C4.21518 13.3336 4.17946 13.3644 4.15237 13.4022C4.12528 13.44 4.1076 13.4838 4.1008 13.5298C4.094 13.5758 4.09828 13.6228 4.11327 13.6668C4.13139 13.7204 4.1406 13.7766 4.14052 13.8331V20.3142C4.14052 20.3723 4.13097 20.4282 4.11327 20.4805C4.09834 20.5245 4.09411 20.5715 4.10093 20.6175C4.10776 20.6635 4.12545 20.7072 4.15253 20.7449C4.17961 20.7827 4.21531 20.8135 4.25666 20.8348C4.29802 20.856 4.34384 20.8671 4.39033 20.8671H11.195C11.5963 20.8671 11.9846 20.7246 12.2906 20.4649C12.5965 20.2052 12.8003 19.8453 12.8655 19.4493L13.5575 15.2482C13.5974 15.0058 13.5841 14.7577 13.5186 14.521C13.453 14.2843 13.3367 14.0647 13.1778 13.8775C13.0188 13.6902 12.8211 13.5398 12.5982 13.4366C12.3753 13.3335 12.1326 13.2801 11.887 13.2801H8.89286ZM16.0757 11.6885L15.4855 12.7109C15.3869 12.8817 15.3229 13.0703 15.2972 13.2658C15.2715 13.4614 15.2846 13.6601 15.3357 13.8505C15.3868 14.041 15.475 14.2196 15.5951 14.376C15.7153 14.5324 15.8651 14.6636 16.0359 14.762C16.3807 14.9611 16.7905 15.015 17.175 14.912C17.5595 14.8089 17.8874 14.5574 18.0865 14.2126L19.3063 12.0997C19.3785 11.9747 19.4823 11.8709 19.6073 11.7987C19.7322 11.7266 19.874 11.6886 20.0183 11.6885H20.5783C20.6248 11.6886 20.6706 11.6775 20.712 11.6563C20.7533 11.635 20.789 11.6042 20.8161 11.5664C20.8432 11.5286 20.8609 11.4849 20.8677 11.4389C20.8745 11.3929 20.8703 11.346 20.8553 11.3019C20.8372 11.2484 20.828 11.1922 20.8281 11.1356V4.65456C20.8281 4.59641 20.8376 4.54042 20.8553 4.48827C20.8703 4.44423 20.8745 4.39727 20.8677 4.35127C20.8609 4.30527 20.8432 4.26155 20.8161 4.22375C20.789 4.18595 20.7533 4.15515 20.712 4.1339C20.6706 4.11265 20.6248 4.10156 20.5783 4.10156H13.7735C13.3722 4.10158 12.9839 4.24415 12.678 4.50384C12.372 4.76354 12.1683 5.12347 12.1031 5.51945L11.4111 9.72048C11.3712 9.9628 11.3845 10.2109 11.4501 10.4476C11.5157 10.6842 11.632 10.9038 11.7909 11.0911C11.9498 11.2783 12.1476 11.4287 12.3704 11.5319C12.5933 11.6351 12.8359 11.6885 13.0815 11.6885H16.0757Z" fill="#FECBB7"/>
<path fill-rule="evenodd" clip-rule="evenodd" d="M18.8953 16.7963C18.8633 16.8282 18.8193 16.8282 18.7874 16.7963C18.031 16.0399 16.8048 16.0399 16.0485 16.7963L16.048 16.7967C15.6496 17.1953 15.4258 17.7357 15.4258 18.2992C15.4258 18.8627 15.6496 19.4031 16.048 19.8016L18.2216 21.9752C18.3029 22.0566 18.3996 22.1212 18.5059 22.1653C18.6122 22.2093 18.7262 22.232 18.8413 22.232C18.9564 22.232 19.0704 22.2093 19.1767 22.1653C19.2831 22.1212 19.3797 22.0566 19.4611 21.9752L21.6347 19.8016C21.832 19.6043 21.9885 19.3701 22.0953 19.1123C22.2021 18.8545 22.257 18.5782 22.257 18.2992C22.257 18.0202 22.2021 17.7439 22.0953 17.4861C21.9885 17.2283 21.832 16.994 21.6347 16.7967L21.6341 16.7963C20.8778 16.0399 19.6516 16.0399 18.8953 16.7963Z" fill="#F45742"/>
<path fill-rule="evenodd" clip-rule="evenodd" d="M4.72544 13.833C4.72544 13.2243 4.232 12.7308 3.62329 12.7308H2.36964C1.76102 12.7308 1.26758 13.2243 1.26758 13.833V20.314C1.26758 20.9227 1.76102 21.4161 2.36964 21.4161H3.62329C4.232 21.4161 4.72544 20.9227 4.72544 20.314V13.833ZM20.2426 11.1355C20.2426 11.7441 20.736 12.2375 21.3447 12.2375H22.5983C23.207 12.2375 23.7004 11.7441 23.7004 11.1355V4.6544C23.7004 4.04569 23.207 3.55225 22.5983 3.55225H21.3447C20.736 3.55225 20.2426 4.04569 20.2426 4.6544V11.1355Z" fill="#00A1FF"/>
<path fill-rule="evenodd" clip-rule="evenodd" d="M5.46983 2.92957L4.99707 3.61561C4.93898 3.69991 4.85381 3.76179 4.75569 3.79099L3.95709 4.02854C3.79657 4.07631 3.65005 4.16237 3.53016 4.27932C3.41027 4.39626 3.32059 4.54059 3.26883 4.69987C3.21708 4.85916 3.2048 5.02864 3.23306 5.19372C3.26132 5.3588 3.32927 5.51454 3.43106 5.64754L3.93752 6.30915C3.99972 6.39044 4.03227 6.49054 4.02975 6.59286L4.00887 7.42582C4.00473 7.59325 4.04132 7.75917 4.1155 7.90932C4.18968 8.05947 4.29923 8.18936 4.43473 8.28779C4.57022 8.38623 4.7276 8.45027 4.89333 8.47441C5.05906 8.49856 5.22817 8.48207 5.38612 8.42638L6.17179 8.14923C6.26834 8.11515 6.37365 8.11515 6.4702 8.14923L7.25587 8.42638C7.41382 8.48208 7.58292 8.49856 7.74865 8.47442C7.91437 8.45028 8.07175 8.38623 8.20724 8.2878C8.34273 8.18936 8.45227 8.05947 8.52644 7.90932C8.60061 7.75917 8.63719 7.59324 8.63303 7.42582L8.61224 6.59286C8.60964 6.49053 8.64219 6.39039 8.70447 6.30915L9.21084 5.64754C9.31263 5.51454 9.38057 5.3588 9.40883 5.19372C9.43709 5.02864 9.42482 4.85916 9.37306 4.69987C9.32131 4.54059 9.23163 4.39626 9.11174 4.27932C8.99184 4.16237 8.84533 4.07631 8.68481 4.02854L7.88621 3.79099C7.78809 3.76179 7.70292 3.69991 7.64483 3.61561L7.17207 2.92957C7.07705 2.79166 6.94993 2.6789 6.80166 2.60101C6.6534 2.52312 6.48843 2.48242 6.32095 2.48242C6.15347 2.48242 5.9885 2.52312 5.84023 2.60101C5.69197 2.6789 5.56485 2.79166 5.46983 2.92957ZM5.479 3.94764L5.95175 3.26159C5.99297 3.20174 6.04811 3.15281 6.11243 3.119C6.17675 3.08519 6.24833 3.06753 6.321 3.06753C6.39366 3.06753 6.46524 3.08519 6.52956 3.119C6.59388 3.15281 6.64903 3.20174 6.69024 3.26159L7.1629 3.94764C7.29679 4.14196 7.49316 4.2846 7.71936 4.35185L8.51795 4.58949C8.58759 4.61021 8.65115 4.64755 8.70317 4.69828C8.75518 4.74901 8.79409 4.81162 8.81654 4.88072C8.83899 4.94982 8.84431 5.02335 8.83204 5.09496C8.81978 5.16658 8.7903 5.23414 8.74614 5.29183L8.23977 5.95344C8.09631 6.14082 8.02131 6.37165 8.02722 6.60756L8.04801 7.44043C8.04985 7.51307 8.034 7.58508 8.00184 7.65024C7.96967 7.7154 7.92214 7.77177 7.86335 7.81448C7.80456 7.8572 7.73626 7.88498 7.66435 7.89544C7.59244 7.90589 7.51906 7.89871 7.45054 7.87451L6.66486 7.59736C6.44232 7.51879 6.19958 7.51879 5.97704 7.59736L5.19136 7.87451C5.12284 7.89869 5.04947 7.90585 4.97756 7.89538C4.90566 7.88492 4.83738 7.85713 4.77859 7.81442C4.71981 7.77172 4.67228 7.71536 4.64011 7.65021C4.60793 7.58506 4.59207 7.51307 4.59389 7.44043L4.61477 6.60756C4.62068 6.37165 4.54568 6.14082 4.40222 5.95344L3.89576 5.29183C3.85162 5.23412 3.82216 5.16656 3.80992 5.09494C3.79767 5.02333 3.80301 4.94981 3.82547 4.88072C3.84792 4.81162 3.88683 4.74901 3.93884 4.69829C3.99085 4.64756 4.05441 4.61022 4.12404 4.58949L4.92254 4.35185C5.14874 4.2846 5.34511 4.14196 5.479 3.94764ZM4.72544 13.8329C4.72544 13.2242 4.232 12.7308 3.62329 12.7308H2.36964C1.76102 12.7308 1.26758 13.2242 1.26758 13.8329V20.314C1.26758 20.9226 1.76102 21.4161 2.36964 21.4161H3.62329C4.232 21.4161 4.72544 20.9226 4.72544 20.314V13.8329ZM4.14024 13.8329V20.314C4.14021 20.4511 4.08574 20.5826 3.98879 20.6795C3.89185 20.7764 3.76038 20.8309 3.62329 20.8309H2.36964C2.23256 20.8309 2.1011 20.7764 2.00417 20.6795C1.90724 20.5826 1.85278 20.4511 1.85278 20.314V13.8329C1.85277 13.7651 1.86613 13.6978 1.8921 13.6351C1.91807 13.5724 1.95614 13.5154 2.00413 13.4674C2.05213 13.4194 2.10911 13.3813 2.17183 13.3553C2.23454 13.3294 2.30176 13.316 2.36964 13.316H3.62329C3.69118 13.316 3.7584 13.3294 3.82112 13.3553C3.88384 13.3813 3.94082 13.4194 3.98883 13.4674C4.03683 13.5154 4.07491 13.5724 4.10089 13.6351C4.12687 13.6978 4.14024 13.7651 4.14024 13.8329ZM20.2426 11.1355C20.2426 11.7441 20.736 12.2375 21.3447 12.2375H22.5983C23.207 12.2375 23.7004 11.7441 23.7004 11.1355V4.65438C23.7004 4.04567 23.207 3.55223 22.5983 3.55223H21.3447C20.736 3.55223 20.2426 4.04567 20.2426 4.65438V11.1355ZM20.8278 11.1355V4.65438C20.8278 4.5173 20.8823 4.38584 20.9792 4.2889C21.0761 4.19196 21.2076 4.13748 21.3446 4.13743H22.5983C22.7354 4.13746 22.8669 4.19193 22.9638 4.28887C23.0607 4.38581 23.1152 4.51728 23.1152 4.65438V11.1355C23.1152 11.2725 23.0608 11.404 22.9639 11.5009C22.8669 11.5979 22.7355 11.6523 22.5984 11.6523H21.3447C21.2769 11.6523 21.2096 11.639 21.1469 11.613C21.0842 11.587 21.0272 11.549 20.9792 11.501C20.9312 11.453 20.8931 11.396 20.8671 11.3333C20.8412 11.2706 20.8278 11.2033 20.8278 11.1355Z" fill="#3D2723"/>
<path fill-rule="evenodd" clip-rule="evenodd" d="M8.89286 13.2801L9.48313 12.2578C9.5817 12.0871 9.64568 11.8987 9.67142 11.7032C9.69716 11.5078 9.68415 11.3092 9.63312 11.1188C9.5821 10.9283 9.49408 10.7498 9.37406 10.5934C9.25405 10.4371 9.10441 10.3058 8.93369 10.2073L8.93266 10.2067C8.76195 10.1081 8.57349 10.0441 8.37804 10.0184C8.18259 9.99261 7.98398 10.0056 7.79356 10.0566C7.60313 10.1077 7.42463 10.1957 7.26824 10.3157C7.11185 10.4357 6.98063 10.5854 6.8821 10.7562L5.66215 12.8691C5.59 12.9941 5.48622 13.0978 5.36124 13.17C5.23626 13.2422 5.09448 13.2801 4.95017 13.2801H4.39033C4.34382 13.2801 4.29796 13.2911 4.25657 13.3124C4.21518 13.3336 4.17946 13.3644 4.15237 13.4022C4.12528 13.44 4.1076 13.4838 4.1008 13.5298C4.094 13.5758 4.09828 13.6228 4.11327 13.6668C4.13139 13.7204 4.1406 13.7766 4.14052 13.8331V20.3142C4.14052 20.3724 4.13097 20.4282 4.11327 20.4805C4.09834 20.5245 4.09411 20.5715 4.10093 20.6175C4.10776 20.6635 4.12545 20.7072 4.15253 20.7449C4.17961 20.7827 4.21531 20.8135 4.25666 20.8348C4.29802 20.856 4.34384 20.8671 4.39033 20.8671H11.195C11.5963 20.8671 11.9846 20.7246 12.2906 20.4649C12.5965 20.2052 12.8003 19.8453 12.8655 19.4493L13.5575 15.2482C13.5974 15.0058 13.5841 14.7577 13.5186 14.521C13.453 14.2843 13.3367 14.0647 13.1778 13.8775C13.0188 13.6902 12.8211 13.5398 12.5982 13.4366C12.3753 13.3335 12.1326 13.2801 11.887 13.2801H8.89286ZM4.72573 20.2819V13.8653H4.95017C5.45298 13.8653 5.91758 13.5971 6.16899 13.1617L7.38893 11.0488C7.44903 10.9446 7.52908 10.8532 7.62449 10.78C7.71991 10.7067 7.82882 10.653 7.94501 10.6218C8.0612 10.5907 8.18239 10.5828 8.30165 10.5985C8.42091 10.6142 8.5359 10.6533 8.64005 10.7135L8.64108 10.714C8.74526 10.7742 8.83657 10.8542 8.9098 10.9496C8.98303 11.0451 9.03674 11.154 9.06787 11.2702C9.099 11.3864 9.10693 11.5076 9.09122 11.6268C9.0755 11.7461 9.03645 11.8611 8.97629 11.9652L8.31084 13.1179C8.26705 13.1936 8.24397 13.2795 8.24394 13.367C8.24391 13.4545 8.26692 13.5405 8.31066 13.6162C8.35439 13.692 8.41731 13.7549 8.49309 13.7986C8.56886 13.8424 8.65481 13.8654 8.7423 13.8653H11.887C12.0477 13.8653 12.2064 13.9003 12.3523 13.9678C12.4981 14.0353 12.6275 14.1338 12.7315 14.2563C12.8355 14.3788 12.9116 14.5225 12.9545 14.6774C12.9974 14.8322 13.0061 14.9946 12.98 15.1532L12.2881 19.3542C12.2454 19.6133 12.1121 19.8488 11.9119 20.0187C11.7117 20.1887 11.4576 20.2819 11.195 20.2819H4.72573ZM16.0757 11.6885L15.4855 12.7109C15.3869 12.8817 15.3229 13.0703 15.2972 13.2658C15.2715 13.4614 15.2846 13.6601 15.3357 13.8505C15.3868 14.041 15.475 14.2196 15.5951 14.376C15.7153 14.5324 15.8651 14.6636 16.0359 14.762C16.3807 14.9611 16.7905 15.015 17.175 14.912C17.5595 14.8089 17.8874 14.5574 18.0865 14.2126L19.3063 12.0997C19.3785 11.9747 19.4823 11.8709 19.6073 11.7987C19.7322 11.7266 19.874 11.6886 20.0183 11.6885H20.5783C20.6248 11.6886 20.6706 11.6775 20.712 11.6563C20.7533 11.635 20.789 11.6042 20.8161 11.5664C20.8432 11.5286 20.8609 11.4849 20.8677 11.4389C20.8745 11.3929 20.8703 11.346 20.8553 11.3019C20.8372 11.2484 20.828 11.1922 20.8281 11.1356V4.65456C20.8281 4.59641 20.8376 4.54042 20.8553 4.48827C20.8703 4.44423 20.8745 4.39727 20.8677 4.35127C20.8609 4.30527 20.8432 4.26155 20.8161 4.22375C20.789 4.18595 20.7533 4.15515 20.712 4.1339C20.6706 4.11265 20.6248 4.10156 20.5783 4.10156H13.7735C13.3722 4.10158 12.9839 4.24415 12.678 4.50384C12.372 4.76354 12.1683 5.12347 12.1031 5.51945L11.4111 9.72048C11.3712 9.9628 11.3845 10.2109 11.4501 10.4476C11.5157 10.6842 11.632 10.9038 11.7909 11.0911C11.9498 11.2783 12.1476 11.4287 12.3704 11.5319C12.5933 11.6351 12.8359 11.6885 13.0815 11.6885H16.0757ZM20.2429 4.68677V11.1033H20.0183C19.7713 11.1034 19.5286 11.1684 19.3147 11.2919C19.1008 11.4154 18.9231 11.5931 18.7996 11.807L17.5797 13.92C17.4582 14.1303 17.2581 14.2838 17.0235 14.3466C16.7889 14.4095 16.5389 14.3766 16.3285 14.2552L16.3275 14.2547C16.1171 14.1332 15.9636 13.9332 15.9008 13.6985C15.8379 13.4639 15.8708 13.2139 15.9922 13.0035L16.6578 11.8508C16.7015 11.7751 16.7246 11.6891 16.7247 11.6016C16.7247 11.5141 16.7017 11.4282 16.6579 11.3524C16.6142 11.2766 16.5512 11.2137 16.4754 11.17C16.3997 11.1263 16.3137 11.1033 16.2262 11.1033H13.0815C12.9208 11.1034 12.762 11.0684 12.6162 11.0009C12.4704 10.9334 12.341 10.835 12.237 10.7125C12.133 10.59 12.0569 10.4463 12.014 10.2914C11.9711 10.1365 11.9624 9.97417 11.9886 9.81561L12.6805 5.61448C12.7232 5.35539 12.8565 5.11988 13.0567 4.94996C13.2569 4.78004 13.5109 4.68676 13.7735 4.68677H20.2429ZM18.5912 16.9872L18.2247 17.7133C18.1534 17.8545 18.1286 18.0145 18.1536 18.1707C18.1786 18.3268 18.2523 18.4711 18.3641 18.5829L18.6803 18.8991C18.7301 18.9489 18.7431 19.0246 18.7127 19.0881L18.396 19.751C18.344 19.8597 18.319 19.9793 18.3229 20.0998C18.3269 20.2202 18.3598 20.3379 18.4189 20.4429L19.1562 21.755C19.1942 21.8226 19.2575 21.8724 19.3322 21.8934C19.4069 21.9143 19.4869 21.9048 19.5546 21.8668C19.6222 21.8288 19.672 21.7654 19.6929 21.6907C19.7139 21.616 19.7044 21.536 19.6664 21.4683L18.929 20.1562C18.916 20.133 18.9087 20.107 18.9079 20.0804C18.907 20.0538 18.9125 20.0274 18.924 20.0033L19.2408 19.3404C19.3078 19.2002 19.3296 19.0427 19.3034 18.8896C19.2771 18.7365 19.204 18.5952 19.0942 18.4854L18.778 18.1692C18.7532 18.1445 18.7369 18.1126 18.7314 18.0781C18.7258 18.0435 18.7313 18.0082 18.7471 17.9769L19.1136 17.2509C19.1459 17.182 19.1501 17.1031 19.1252 17.0311C19.1004 16.9591 19.0485 16.8996 18.9805 16.8653C18.9125 16.831 18.8338 16.8245 18.7611 16.8473C18.6884 16.8701 18.6274 16.9203 18.5912 16.9872Z" fill="#3D2723"/>
<path fill-rule="evenodd" clip-rule="evenodd" d="M18.8953 16.7963C18.8633 16.8282 18.8193 16.8282 18.7874 16.7963C18.031 16.0399 16.8048 16.0399 16.0485 16.7963L16.048 16.7967C15.6496 17.1953 15.4258 17.7357 15.4258 18.2992C15.4258 18.8627 15.6496 19.4031 16.048 19.8016L18.2216 21.9752C18.3029 22.0566 18.3996 22.1212 18.5059 22.1653C18.6122 22.2093 18.7262 22.232 18.8413 22.232C18.9564 22.232 19.0704 22.2093 19.1767 22.1653C19.2831 22.1212 19.3797 22.0566 19.4611 21.9752L21.6347 19.8016C21.832 19.6043 21.9885 19.3701 22.0953 19.1123C22.2021 18.8545 22.257 18.5782 22.257 18.2992C22.257 18.0202 22.2021 17.7439 22.0953 17.4861C21.9885 17.2283 21.832 16.994 21.6347 16.7967L21.6341 16.7963C20.8778 16.0399 19.6516 16.0399 18.8953 16.7963ZM19.3091 17.21C19.8368 16.6822 20.6925 16.6822 21.2204 17.21C21.3635 17.353 21.477 17.5227 21.5545 17.7095C21.632 17.8963 21.6719 18.0966 21.672 18.2989C21.672 18.5011 21.6322 18.7014 21.5548 18.8883C21.4774 19.0751 21.3639 19.2449 21.2208 19.3879L19.0473 21.5614C18.9927 21.616 18.9186 21.6466 18.8414 21.6466C18.7642 21.6466 18.6901 21.616 18.6354 21.5614L16.4618 19.3879C16.3189 19.2449 16.2055 19.0752 16.1281 18.8884C16.0507 18.7016 16.0109 18.5014 16.0109 18.2992C16.0109 18.0971 16.0507 17.8969 16.1281 17.7101C16.2055 17.5233 16.3189 17.3536 16.4618 17.2106L16.4623 17.21C16.9901 16.6822 17.8458 16.6822 18.3735 17.21C18.6507 17.4872 19.032 17.4872 19.3091 17.21Z" fill="#3D2723"/>
</svg>
