<svg width="75" height="46" viewBox="0 0 75 46" fill="none" xmlns="http://www.w3.org/2000/svg">
<rect x="0.5" y="0.5" width="74" height="45" rx="3.5" fill="white" stroke="#0AA89E"/>
<path d="M51 26.1429C51 25.2559 50.535 24.4759 49.8298 23.9865C50.256 23.5047 50.504 22.9159 50.504 22.2812C50.504 20.79 49.2021 19.5818 47.6134 19.5818H41.9329C43.1109 17.7082 44.4516 14.4047 42.1034 11.2618C41.5067 10.4588 40.6077 10 39.6545 10H39.6468C38.7091 10 37.8489 10.4512 37.2677 11.2312C36.9887 11.6135 36.7949 12.0341 36.6864 12.4624C36.1827 14.55 35.4465 16.2171 34.6715 17.0429C33.9973 17.7465 33.1759 18.7788 32.4706 19.8571C32.2529 19.4261 31.918 19.0633 31.5033 18.8094C31.0886 18.5555 30.6105 18.4205 30.1225 18.4194H27.6271C26.1779 18.4194 25 19.5818 25 21.0118V33.4C25 34.83 26.1779 36 27.6271 36H30.1225C31.3082 36 32.2924 35.22 32.6256 34.1647C34.3848 35.3118 36.4617 35.9465 38.5928 35.9465H45.9782C46.7455 35.9465 47.4584 35.6712 48.0009 35.1741C48.5589 34.6618 48.8689 33.9812 48.8689 33.2471C48.8689 32.9412 48.8069 32.6353 48.6984 32.3524C49.5353 31.8782 50.101 31.0294 50.101 30.0506C50.101 29.4618 49.8918 28.9112 49.5431 28.4676C50.411 28.0012 51 27.1371 51 26.1429ZM31.2539 33.4C31.2539 34.0194 30.7502 34.5165 30.1225 34.5165H27.6271C27.0072 34.5165 26.5034 34.0194 26.5034 33.4V21.0118C26.5034 20.4 27.0072 19.9029 27.6271 19.9029H30.1225C30.7502 19.9029 31.2539 20.4 31.2539 21.0118V33.4ZM48.1094 27.3512H45.335C44.9243 27.3512 44.5833 27.6876 44.5833 28.0929C44.5833 28.5059 44.9243 28.8347 45.335 28.8347H47.2104C47.9776 28.8347 48.5976 29.3853 48.5976 30.0506C48.5976 30.7235 47.9776 31.2665 47.2104 31.2665H45.893C45.6936 31.2665 45.5024 31.3446 45.3615 31.4837C45.2205 31.6228 45.1413 31.8115 45.1413 32.0082C45.1413 32.205 45.2205 32.3936 45.3615 32.5327C45.5024 32.6719 45.6936 32.75 45.893 32.75H47.2414C47.3112 32.8876 47.3654 33.0482 47.3654 33.2471C47.3654 33.5606 47.2259 33.8588 46.9779 34.0882C46.7145 34.3253 46.358 34.4629 45.9782 34.4629H38.5928C36.4617 34.4629 34.408 33.7365 32.7574 32.4212V22.4418C33.3928 20.9735 34.7335 19.1382 35.7642 18.06C37.0739 16.6835 37.8179 14.1753 38.1511 12.8065C38.2131 12.5618 38.3216 12.3324 38.4844 12.1029C38.7788 11.7053 39.1896 11.4835 39.6468 11.4835C40.1428 11.4606 40.5768 11.7206 40.8945 12.1488C43.2581 15.3147 40.7317 18.8476 39.8948 19.8571C39.7088 20.0788 39.6778 20.3847 39.8018 20.6447C39.9258 20.8971 40.1893 21.0653 40.476 21.0653H47.6134C48.3729 21.0653 49.0006 21.6082 49.0006 22.2812C49.0006 22.5947 48.8611 22.8929 48.6131 23.1224C48.3496 23.3594 47.9931 23.4971 47.6134 23.4971H45.0638C44.8644 23.4971 44.6732 23.5752 44.5322 23.7143C44.3913 23.8534 44.3121 24.0421 44.3121 24.2388C44.3121 24.4356 44.3913 24.6242 44.5322 24.7633C44.6732 24.9024 44.8644 24.9806 45.0638 24.9806H47.6134C47.7994 24.9806 47.9776 24.9576 48.1559 24.9271C48.8999 24.95 49.4966 25.4853 49.4966 26.1429C49.4966 26.8082 48.8766 27.3512 48.1094 27.3512Z" fill="#2B2E63"/>
<path d="M31.2544 21.0117V33.3999C31.2544 34.0193 30.7507 34.5164 30.123 34.5164H27.6276C27.0076 34.5164 26.5039 34.0193 26.5039 33.3999V21.0117C26.5039 20.3999 27.0076 19.9028 27.6276 19.9028H30.123C30.7507 19.9028 31.2544 20.3999 31.2544 21.0117Z" fill="#01A301"/>
<path d="M44.5837 28.0928C44.5837 28.5057 44.9247 28.8345 45.3355 28.8345H47.2109C47.9781 28.8345 48.5981 29.3851 48.5981 30.0504C48.5981 30.7233 47.9781 31.2663 47.2109 31.2663H45.8934C45.6941 31.2663 45.5029 31.3444 45.3619 31.4835C45.2209 31.6226 45.1417 31.8113 45.1417 32.008C45.1417 32.2048 45.2209 32.3934 45.3619 32.5326C45.5029 32.6717 45.6941 32.7498 45.8934 32.7498H47.2419C47.3116 32.8875 47.3659 33.048 47.3659 33.2469C47.3659 33.5604 47.2264 33.8586 46.9784 34.088C46.7149 34.3251 46.3584 34.4627 45.9787 34.4627H38.5933C36.4621 34.4627 34.4085 33.7363 32.7578 32.421V22.4416C33.3933 20.9733 34.734 19.138 35.7647 18.0598C37.0744 16.6833 37.8183 14.1751 38.1516 12.8063C38.2135 12.5616 38.322 12.3322 38.4848 12.1027C38.7793 11.7051 39.19 11.4833 39.6472 11.4833C40.1432 11.4604 40.5772 11.7204 40.8949 12.1486C43.2586 15.3145 40.7322 18.8475 39.8952 19.8569C39.7092 20.0786 39.6782 20.3845 39.8022 20.6445C39.9262 20.8969 40.1897 21.0651 40.4764 21.0651H47.6138C48.3733 21.0651 49.001 21.608 49.001 22.281C49.001 22.5945 48.8615 22.8927 48.6136 23.1222C48.3501 23.3592 47.9936 23.4969 47.6138 23.4969H45.0642C44.8649 23.4969 44.6737 23.575 44.5327 23.7141C44.3917 23.8532 44.3125 24.0419 44.3125 24.2386C44.3125 24.4354 44.3917 24.624 44.5327 24.7631C44.6737 24.9022 44.8649 24.9804 45.0642 24.9804H47.6138C47.7998 24.9804 47.9781 24.9575 48.1563 24.9269C48.9003 24.9498 49.497 25.4851 49.497 26.1428C49.497 26.808 48.877 27.351 48.1098 27.351H45.3355C44.9247 27.351 44.5837 27.6875 44.5837 28.0928Z" fill="#FFE5AB"/>
<path d="M41.7224 16.3392C41.5907 15.5439 41.2652 14.7257 40.6685 13.9227C40.3042 13.4333 39.8005 13.1275 39.227 13.158C38.7001 13.158 38.2196 13.4104 37.8786 13.8769C37.8631 13.8922 37.8553 13.9151 37.8398 13.9304C37.9716 13.5098 38.0723 13.1275 38.1498 12.8063C38.2118 12.5616 38.3203 12.3322 38.4831 12.1027C38.7775 11.7051 39.1883 11.4833 39.6455 11.4833C40.1415 11.4604 40.5755 11.7204 40.8932 12.1486C41.9471 13.5557 42.0246 15.0392 41.7224 16.3392ZM48.9993 22.281C48.9993 22.5945 48.8598 22.8927 48.6118 23.1222C48.3483 23.3592 47.9919 23.4969 47.6121 23.4969H46.0622C46.4419 23.4969 46.7984 23.3592 47.0619 23.1222C47.3099 22.8927 47.4494 22.5945 47.4494 22.281C47.4494 21.608 46.8217 21.0651 46.0622 21.0651H47.6121C48.3716 21.0651 48.9993 21.608 48.9993 22.281ZM49.4953 26.1428C49.4953 26.808 48.8753 27.351 48.1081 27.351H46.5582C47.3254 27.351 47.9454 26.808 47.9454 26.1428C47.9454 25.5922 47.5269 25.1257 46.9534 24.9804H47.6121C47.7981 24.9804 47.9764 24.9575 48.1546 24.9269C48.8986 24.9498 49.4953 25.4851 49.4953 26.1428ZM47.3641 33.2469C47.3641 33.5604 47.2246 33.8586 46.9767 34.088C46.7132 34.3251 46.3567 34.4627 45.977 34.4627H44.427C44.8068 34.4627 45.1632 34.3251 45.4267 34.088C45.6747 33.8586 45.8142 33.5604 45.8142 33.2469C45.8142 33.071 45.7755 32.8645 45.7057 32.7269C45.76 32.7422 45.8297 32.7498 45.8917 32.7498H47.2401C47.3099 32.8875 47.3641 33.048 47.3641 33.2469ZM48.5963 30.0504C48.5963 30.7233 47.9764 31.2663 47.2091 31.2663H46.2249C46.7132 31.0522 47.0464 30.5551 47.0464 30.0504C47.0464 29.3851 46.4264 28.8345 45.6592 28.8345H47.2091C47.9764 28.8345 48.5963 29.3851 48.5963 30.0504Z" fill="#F0D39A"/>
<path d="M30.123 19.9028H27.6276C27.0076 19.9028 26.5039 20.3999 26.5039 21.0117V33.3999C26.5039 34.0193 27.0076 34.5164 27.6276 34.5164H30.123C30.7507 34.5164 31.2544 34.0193 31.2544 33.3999V21.0117C31.2544 20.3999 30.7507 19.9028 30.123 19.9028ZM30.4795 33.3999C30.4795 33.5987 30.3245 33.7517 30.123 33.7517H27.6276C27.5811 33.7517 27.5352 33.7425 27.4923 33.7247C27.4495 33.707 27.4107 33.6809 27.3782 33.6482C27.3457 33.6154 27.3202 33.5766 27.3032 33.5339C27.2861 33.4913 27.2778 33.4457 27.2789 33.3999V21.0117C27.2789 20.8205 27.4339 20.6675 27.6276 20.6675H30.123C30.3167 20.6675 30.4795 20.8205 30.4795 21.0117V33.3999Z" fill="#006800"/>
</svg>
