<svg width="58" height="58" viewBox="0 0 58 58" fill="none" xmlns="http://www.w3.org/2000/svg">
<circle cx="29" cy="29" r="29" fill="#0AA89E" fill-opacity="0.19"/>
<g clip-path="url(#clip0_61_450)">
<path d="M46.5448 27.0582C46.5448 36.1564 39.1698 43.5314 30.0722 43.5314C20.9755 43.5314 13.5996 36.1564 13.5996 27.0582C13.5996 17.9605 20.9754 10.5864 30.0722 10.5864C32.3037 10.5864 34.4315 11.0297 36.3721 11.8343C36.4066 11.8484 36.4409 11.8624 36.4745 11.8775C41.7261 14.0939 45.5879 18.9567 46.39 24.7945C46.39 24.7968 46.3908 24.7991 46.3908 24.8015C46.4936 25.5493 46.5449 26.3033 46.5448 27.0582Z" fill="#F8A28B"/>
<path d="M46.3909 24.8015C46.3909 24.7991 46.3901 24.7968 46.3901 24.7945C45.5879 18.9567 41.7258 14.0939 36.4746 11.8774C36.441 11.8624 36.4067 11.8484 36.3722 11.8343C34.4315 11.0297 32.3041 10.5864 30.0723 10.5864C29.1266 10.5864 28.2 10.6673 27.298 10.8204C28.5066 11.025 29.6882 11.3651 30.8206 11.8343C30.8551 11.8484 30.8896 11.8624 30.9232 11.8775C36.1745 14.0939 40.0362 18.9567 40.8384 24.7945C40.8384 24.7968 40.8393 24.7991 40.8393 24.8015C40.9422 25.5493 40.9936 26.3033 40.9933 27.0582C40.9933 35.2104 35.0723 41.9777 27.2966 43.2973C28.2136 43.453 29.1421 43.5313 30.0723 43.5314C39.1699 43.5314 46.5449 36.1564 46.5449 27.0582C46.5449 26.2928 46.4925 25.539 46.3909 24.8015Z" fill="#F58C79"/>
<path d="M11.6108 28.5013L20.9688 22.2269C21.6331 21.7801 22.4423 21.6025 23.2325 21.73C24.0244 21.8584 24.8355 21.6813 25.5017 21.2345L26.7539 20.394L33.7676 30.8621L32.0467 38.389C31.914 38.9701 31.847 39.5643 31.8469 40.1604C31.8469 41.6909 32.2888 43.2017 33.1368 44.4981C33.3381 44.8061 33.4451 45.1662 33.4447 45.5341C33.4447 46.1429 33.153 46.7399 32.614 47.1014C31.8875 47.589 30.9244 47.4982 30.299 46.8839L29.1842 45.7907C27.9092 44.5384 26.9261 43.0135 26.3083 41.327L25.7038 39.6792L19.4793 43.8436C18.4851 44.5101 17.1402 44.2187 16.5053 43.1875C15.8932 42.1942 16.2075 40.882 17.1721 40.2355C17.1769 40.2323 17.1803 40.2275 17.1819 40.222C17.1834 40.2165 17.1829 40.2106 17.1805 40.2054C17.1753 40.1952 17.1634 40.1883 17.1503 40.1937C16.9086 40.288 16.6514 40.3362 16.3919 40.3361C15.981 40.3359 15.5791 40.2161 15.2351 39.9914C14.9897 39.8302 14.7802 39.6199 14.6199 39.3739C14.2984 38.8822 14.2027 38.3058 14.308 37.77C14.4727 36.9258 15.0789 36.4909 15.1977 36.4088C15.2076 36.4018 15.2144 36.3912 15.2165 36.3793C15.2187 36.3674 15.2161 36.355 15.2093 36.345C15.2093 36.3443 15.2088 36.3436 15.2079 36.3436C15.2013 36.3344 15.1914 36.3281 15.1803 36.3259C15.1693 36.3237 15.1577 36.3258 15.1481 36.3317C14.9795 36.3729 14.8065 36.3935 14.633 36.3932C14.2114 36.3932 13.7922 36.2721 13.4359 36.0421C13.1886 35.8827 12.9776 35.6731 12.8166 35.4268C12.1695 34.4377 12.4371 33.1041 13.4147 32.4489C13.4391 32.432 13.4631 32.4155 13.4872 32.3999C13.5011 32.3888 13.5052 32.3706 13.4979 32.3581C13.4964 32.3547 13.4937 32.352 13.4904 32.3503C13.4794 32.3416 13.4622 32.341 13.4484 32.3518C12.8407 32.5613 12.1797 32.4659 11.6477 32.1173C11.4027 31.9581 11.1856 31.7438 11.0136 31.4808C10.3663 30.4902 10.6338 29.1568 11.6108 28.5013Z" fill="#FDD7BD"/>
<path d="M46.3908 24.8017L39.6639 29.4291L35.6372 32.1292C35.1733 32.4402 34.5488 32.3112 34.2415 31.8412L26.3801 19.8227C26.0728 19.3518 26.2003 18.7193 26.6648 18.4073L30.6127 15.7607L36.4745 11.8774C41.7261 14.0941 45.5879 18.957 46.39 24.7948C46.39 24.7971 46.3908 24.7994 46.3908 24.8017Z" fill="#87DBFF"/>
<path d="M26.6646 18.4075L30.6124 15.7603L39.664 29.4293L35.6376 32.1294C35.1737 32.4404 34.5484 32.3114 34.241 31.8412L26.3799 19.8223C26.0726 19.3521 26.2001 18.7194 26.6646 18.4075Z" fill="#6FC7FF"/>
<path d="M15.235 39.9906L18.3487 38.3036C18.7905 38.0647 19.3381 38.1893 19.6353 38.5964L17.1803 40.2049C17.1751 40.1947 17.1632 40.1875 17.1502 40.193C16.9085 40.2875 16.6512 40.3358 16.3917 40.3356C15.9808 40.3355 15.5788 40.2156 15.235 39.9906ZM13.4357 36.0414L16.4819 34.392C16.9237 34.1526 17.4714 34.277 17.7686 34.6843L15.3135 36.2925L15.2077 36.3429C15.2011 36.3338 15.1913 36.3274 15.1802 36.3252C15.1691 36.323 15.1576 36.3251 15.148 36.3311C14.9794 36.3724 14.8064 36.393 14.6328 36.3924C14.2113 36.3924 13.7918 36.2713 13.4357 36.0414ZM11.6472 32.1165L14.3302 30.6631C14.7714 30.4245 15.3187 30.5489 15.6168 30.9563L13.4902 32.3496C13.4792 32.3409 13.4621 32.3403 13.4482 32.3511C12.8405 32.5607 12.1792 32.4652 11.6472 32.1165V32.1165Z" fill="#FAC5AA"/>
<path d="M47.031 25.2166C47.049 25.1449 47.0534 25.0703 47.0438 24.997C46.9508 24.3212 46.8171 23.6517 46.6434 22.9921C46.6419 22.9852 46.6402 22.9782 46.6385 22.9713L46.6373 22.9668L46.6364 22.9634L46.6356 22.9602V22.9596C45.7385 19.3247 43.621 16.0338 40.6726 13.6924C37.6301 11.2768 33.9644 10 30.0716 10C25.5153 10 21.2314 11.7743 18.0096 14.9961C14.8185 18.1873 13.0482 22.4207 13.0149 26.9292L11.2925 28.0698C10.5294 28.5748 10.0742 29.4231 10.0742 30.339C10.074 30.8729 10.2314 31.395 10.5265 31.8399C10.9297 32.4484 11.5374 32.841 12.1993 32.9891C11.9936 33.3801 11.8863 33.8154 11.8865 34.2572C11.8865 34.7918 12.0431 35.3107 12.3391 35.757C12.7415 36.3649 13.3497 36.7577 14.0122 36.9062C13.8063 37.2974 13.6987 37.733 13.699 38.1752C13.6989 38.7088 13.8562 39.2306 14.1514 39.6752C14.554 40.2829 15.1622 40.6755 15.8245 40.8236C15.6187 41.2147 15.5112 41.65 15.5113 42.092C15.5113 42.6269 15.6685 43.1458 15.9648 43.5926C16.366 44.1982 16.9789 44.6114 17.691 44.756C17.873 44.7928 18.0563 44.8111 18.238 44.8111C18.7663 44.8111 19.2835 44.6566 19.734 44.3583L22.6547 42.4242C22.9484 42.5666 23.2463 42.7003 23.5479 42.8251C24.5997 43.2612 25.6982 43.5894 26.8167 43.8054C27.3614 44.6884 28.0135 45.5005 28.758 46.223L29.878 47.3088C30.339 47.7546 30.9449 47.9999 31.5847 47.9999C32.0663 47.9999 32.534 47.8591 32.9375 47.592C33.2754 47.3688 33.5525 47.0651 33.7441 46.7083C33.9357 46.3515 34.0357 45.9528 34.0351 45.5478C34.0357 45.067 33.8938 44.5968 33.6275 44.1965C33.5415 44.0651 33.4597 43.931 33.3822 43.7944C38.6689 42.7565 43.1571 39.2807 45.4901 34.3682C45.6289 34.0757 45.5046 33.7258 45.2121 33.5869C44.9195 33.4481 44.5696 33.5724 44.4307 33.865C42.216 38.5283 37.9177 41.8023 32.8717 42.6982C32.3927 41.3892 32.2991 39.9463 32.6142 38.5866L34.0438 32.4096C34.2694 32.6515 34.565 32.8168 34.8892 32.8824C34.9968 32.9042 35.1046 32.9152 35.2119 32.9152C35.5224 32.9152 35.8263 32.8241 36.0909 32.6487L45.9314 26.1314C45.9493 26.4398 45.9586 26.7495 45.9586 27.0588C45.9586 28.525 45.7589 29.9771 45.3654 31.3745C45.3409 31.4617 45.3368 31.5535 45.3537 31.6425C45.3705 31.7315 45.4077 31.8155 45.4625 31.8877C45.5172 31.9599 45.5879 32.0185 45.6691 32.0588C45.7502 32.0991 45.8396 32.12 45.9303 32.1199C46.058 32.1198 46.1822 32.078 46.284 32.0009C46.3858 31.9237 46.4596 31.8155 46.4943 31.6926C46.9171 30.1917 47.1313 28.6328 47.1313 27.0588C47.1313 26.4421 47.0965 25.8235 47.031 25.2167V25.2166ZM39.9768 28.6687L31.5314 16.0735L36.5055 12.7797C40.9129 14.7091 44.262 18.5999 45.4979 23.2461C45.4982 23.2476 45.4988 23.2493 45.4991 23.2507C45.5 23.2544 45.5006 23.258 45.5014 23.2615C45.6268 23.7731 45.7262 24.2908 45.7992 24.8125L39.9768 28.6687ZM23.807 41.6612L25.372 40.6247L25.7248 41.5754C25.8336 41.8677 25.9532 42.1558 26.0834 42.4393C25.3724 42.2557 24.6751 42.0227 23.9966 41.7418C23.9334 41.7156 23.8702 41.6881 23.807 41.6612ZM31.4713 38.3222C31.0657 40.0732 31.2408 41.9441 31.9647 43.5894C31.965 43.5897 31.965 43.59 31.9653 43.5906C31.9665 43.5935 31.9679 43.5964 31.9694 43.5992C32.161 44.0325 32.3885 44.449 32.6495 44.8444C32.7883 45.0528 32.8623 45.2976 32.862 45.548C32.8624 45.7592 32.8103 45.9672 32.7104 46.1534C32.6105 46.3395 32.466 46.4979 32.2898 46.6144C32.0807 46.7532 31.8353 46.8274 31.5844 46.8275C31.2507 46.8275 30.9343 46.6991 30.6937 46.4666L29.5743 45.3814C28.8403 44.6697 28.2054 43.8624 27.687 42.9811C27.6824 42.9734 27.6775 42.9656 27.6729 42.9579C27.3389 42.3866 27.055 41.7874 26.8242 41.1672L26.2145 39.5236C26.1604 39.3778 26.0506 39.2594 25.9092 39.1946C25.7678 39.1297 25.6065 39.1237 25.4607 39.1777C25.4544 39.18 25.4485 39.1832 25.4424 39.1855C25.4224 39.1911 25.3955 39.2044 25.3601 39.2267C25.356 39.229 25.3523 39.2316 25.3482 39.234C25.3456 39.2357 25.3436 39.2369 25.3407 39.2386L19.0862 43.3807C18.9171 43.4933 18.7273 43.5713 18.5279 43.6101C18.3285 43.6489 18.1233 43.6478 17.9243 43.6068C17.725 43.5669 17.5355 43.4878 17.367 43.3741C17.1984 43.2605 17.0541 43.1145 16.9424 42.9446C16.774 42.6922 16.6842 42.3956 16.6843 42.0922C16.6843 41.5712 16.9435 41.0883 17.3778 40.8007L17.9118 40.4475C17.9118 40.4472 17.9121 40.4472 17.9124 40.4469C17.9153 40.4449 17.9184 40.4429 17.9213 40.4408L19.1326 39.6387C19.1968 39.5962 19.252 39.5414 19.295 39.4776C19.3381 39.4137 19.3681 39.342 19.3834 39.2665C19.3988 39.191 19.3991 39.1133 19.3843 39.0377C19.3696 38.9621 19.3401 38.8902 19.2976 38.826C19.2117 38.6964 19.0778 38.6062 18.9255 38.5752C18.7731 38.5442 18.6147 38.575 18.485 38.6608L17.2655 39.4685C16.555 39.9321 15.5977 39.735 15.1295 39.0278C14.9616 38.7753 14.8719 38.4789 14.8717 38.1758C14.8713 37.9198 14.9345 37.6677 15.0555 37.4421C15.1766 37.2166 15.3519 37.0247 15.5655 36.8836L17.3198 35.7216C17.4495 35.6358 17.5398 35.502 17.5709 35.3496C17.602 35.1972 17.5713 35.0387 17.4856 34.9089C17.3997 34.7793 17.2659 34.689 17.1136 34.6579C16.9612 34.6269 16.8028 34.6575 16.673 34.7431L15.4541 35.5503C14.7436 36.0147 13.7854 35.8175 13.3169 35.1093C13.1489 34.857 13.0594 34.5606 13.0595 34.2575C13.059 34.0016 13.1221 33.7496 13.2431 33.5241C13.3641 33.2986 13.5392 33.1067 13.7527 32.9656L15.5072 31.8034C15.5715 31.7609 15.6267 31.7062 15.6698 31.6424C15.7129 31.5786 15.743 31.507 15.7584 31.4315C15.7738 31.3561 15.7742 31.2783 15.7596 31.2027C15.7449 31.1272 15.7155 31.0552 15.673 30.991C15.4947 30.7208 15.1306 30.6466 14.8604 30.8252L13.6479 31.6273C12.9371 32.0982 11.9754 31.903 11.5046 31.1922C11.3365 30.9394 11.2468 30.6425 11.2469 30.339C11.2465 30.0832 11.3096 29.8313 11.4305 29.6059C11.5514 29.3806 11.7264 29.1887 11.9398 29.0477L16.1981 26.2279C16.264 26.1861 16.3208 26.1316 16.3654 26.0676C16.4099 26.0036 16.4412 25.9313 16.4575 25.8551C16.4738 25.7788 16.4747 25.7001 16.4602 25.6235C16.4457 25.5468 16.416 25.4739 16.373 25.4089C16.3299 25.3439 16.2743 25.2881 16.2095 25.2448C16.1446 25.2015 16.0717 25.1716 15.9952 25.1568C15.9186 25.142 15.8399 25.1426 15.7636 25.1587C15.6872 25.1747 15.6149 25.2057 15.5507 25.25L14.2136 26.1351C14.6938 17.804 21.6225 11.1727 30.0715 11.1727C31.927 11.1727 33.7266 11.485 35.4217 12.0906L26.4221 18.0502C25.688 18.5378 25.4862 19.532 25.9724 20.2666L26.0246 20.3455L25.2552 20.8557C24.8262 21.1401 24.3229 21.2918 23.8082 21.2918C23.6687 21.2918 23.5296 21.2804 23.393 21.2584C22.4535 21.1068 21.4914 21.3149 20.6985 21.8412L17.6436 23.8642C17.514 23.9501 17.4238 24.084 17.3929 24.2364C17.3619 24.3888 17.3928 24.5472 17.4787 24.6768C17.5321 24.7577 17.6048 24.8241 17.6902 24.8699C17.7756 24.9158 17.8711 24.9397 17.968 24.9396C18.083 24.9396 18.1955 24.9057 18.2913 24.8421L21.3462 22.8191C21.8936 22.4559 22.5577 22.3121 23.2063 22.4163C23.4037 22.4483 23.6061 22.4644 23.8082 22.4644C24.5541 22.4644 25.2781 22.2465 25.9026 21.8336L26.6722 21.3237L33.1441 31.0954L31.4713 38.3222ZM35.4429 31.6714C35.3964 31.7024 35.3442 31.7238 35.2894 31.7344C35.2345 31.745 35.1781 31.7446 35.1234 31.7332C35.0684 31.7221 35.0161 31.7003 34.9695 31.6689C34.923 31.6375 34.8832 31.5971 34.8524 31.5502L27.3279 20.1889C27.3273 20.1881 27.327 20.1872 27.3264 20.1866L27.3247 20.1843L26.9504 19.6192C26.8208 19.4232 26.875 19.1574 27.0704 19.0275L30.5535 16.7212L38.9988 29.3164L35.4429 31.6714Z" fill="black"/>
</g>
<defs>
<clipPath id="clip0_61_450">
<rect width="38" height="38" fill="white" transform="translate(10 10)"/>
</clipPath>
</defs>
</svg>
