<svg width="27" height="32" viewBox="0 0 27 32" fill="none" xmlns="http://www.w3.org/2000/svg">
<path d="M20.8545 7.70681C20.8545 9.82469 20.095 11.6579 18.5967 13.1565C17.0984 14.6548 15.2649 15.4143 13.147 15.4143H13.1433C11.0281 15.4136 9.19582 14.6541 7.69751 13.1565C6.19901 11.6579 5.4397 9.82469 5.4397 7.70681C5.4397 5.58962 6.19901 3.75612 7.69751 2.25781C9.19507 0.76 11.0274 0.00075 13.1433 0H13.147C15.2642 0 17.0976 0.7595 18.5967 2.25781C20.095 3.75612 20.8545 5.58962 20.8545 7.70681Z" fill="#2682FF"/>
<path d="M26.698 26.4966C26.698 28.1675 26.1665 29.5203 25.1196 30.5166C24.085 31.5013 22.7165 32 21.0527 32H5.64456C3.98069 32 2.61231 31.5013 1.57831 30.5166C0.530875 29.5195 0 28.167 0 26.4966C0 25.854 0.02125 25.2183 0.06375 24.607C0.106875 23.982 0.194375 23.3018 0.32325 22.5843C0.453125 21.8608 0.620125 21.177 0.820125 20.552C1.02762 19.905 1.30838 19.2669 1.65575 18.6555C2.01662 18.021 2.44044 17.4683 2.9155 17.0132C3.41363 16.5369 4.02244 16.1543 4.72631 15.8755C5.42775 15.5981 6.20531 15.4575 7.03737 15.4575C7.36375 15.4575 7.67988 15.5911 8.28925 15.9881C8.72328 16.2707 9.15859 16.5514 9.59519 16.8301C10.0142 17.0972 10.5816 17.3477 11.2829 17.574C11.8994 17.7735 12.5251 17.8848 13.1433 17.904C13.2114 17.9065 13.2796 17.9078 13.3477 17.9078C14.0342 17.9078 14.7285 17.7952 15.4131 17.574C16.1145 17.3477 16.6826 17.0971 17.1013 16.8301C17.5378 16.5517 17.9729 16.2713 18.4067 15.9888C19.0166 15.5911 19.3323 15.4576 19.6594 15.4576C20.4907 15.4576 21.2683 15.5982 21.9702 15.8755C22.6741 16.1543 23.2829 16.5376 23.7805 17.0132C24.2564 17.4683 24.6802 18.021 25.0408 18.6555C25.3884 19.2674 25.6697 19.905 25.8764 20.5513C26.0767 21.177 26.2441 21.8608 26.374 22.5847C26.5022 23.303 26.5898 23.9831 26.6328 24.6065C26.676 25.2158 26.6973 25.8516 26.698 26.4966Z" fill="#2682FF"/>
</svg>
