<svg width="58" height="58" viewBox="0 0 58 58" fill="none" xmlns="http://www.w3.org/2000/svg">
<circle cx="29" cy="29" r="29" fill="#0AA89E" fill-opacity="0.19"/>
<g clip-path="url(#clip0_61_254)">
<path d="M43.8603 30.8119C43.8603 39.9782 36.4285 47.4091 27.2622 47.4091C25.0136 47.4091 22.8699 46.9621 20.915 46.1515C15.571 43.938 11.6348 39.0134 10.821 33.093C10.7167 32.3371 10.6646 31.5749 10.665 30.8119C10.665 21.6447 18.0959 14.2139 27.2622 14.2139C36.4285 14.2139 43.8603 21.6447 43.8603 30.8119Z" fill="#937DE2"/>
<path d="M27.2622 14.2139C26.3846 14.2139 25.5232 14.2826 24.6825 14.4137C32.6239 15.653 38.7012 22.5224 38.7012 30.8119C38.7012 39.1004 32.6245 45.9694 24.684 47.2091C25.5369 47.3422 26.3989 47.4091 27.2622 47.4091C36.4285 47.4091 43.8602 39.9782 43.8602 30.8119C43.8602 21.6447 36.4285 14.2139 27.2622 14.2139Z" fill="#7570D6"/>
<path d="M45.9323 29.5849L36.4545 35.8609C35.7796 36.3083 34.9613 36.4857 34.1618 36.3579C33.3604 36.2303 32.5405 36.4054 31.8636 36.8536L30.5952 37.6941L23.4919 27.2237L25.2346 19.6949C25.3692 19.1139 25.4372 18.5195 25.4373 17.9232C25.4373 16.3924 24.9897 14.8814 24.131 13.5843C23.9273 13.2772 23.8188 12.9169 23.819 12.5484C23.819 11.9393 24.1143 11.3421 24.6603 10.9805C25.3961 10.4929 26.3714 10.5836 27.0049 11.198L28.1338 12.2915C29.4254 13.5441 30.4206 15.0695 31.0466 16.7563L31.6589 18.4044L37.9632 14.2393C38.97 13.5727 40.3324 13.864 40.9751 14.8953C41.5952 15.8889 41.2769 17.2016 40.2999 17.8485C40.288 17.8562 40.2874 17.8687 40.2912 17.8782C40.2967 17.8884 40.3086 17.8957 40.3219 17.8901C40.567 17.7956 40.8275 17.7473 41.0902 17.7475C41.5028 17.7475 41.9118 17.8663 42.2618 18.0925C42.5097 18.2533 42.7218 18.4635 42.8848 18.71C43.198 19.1819 43.3116 19.7587 43.2008 20.3141C43.0335 21.1587 42.42 21.5935 42.2994 21.6756C42.2895 21.6826 42.2826 21.6931 42.2804 21.7051C42.2782 21.717 42.2807 21.7293 42.2875 21.7394C42.2875 21.7403 42.2884 21.7409 42.2893 21.7409C42.3027 21.7599 42.3301 21.7654 42.3499 21.7527C42.5207 21.7115 42.6957 21.6909 42.8714 21.6912C43.2982 21.6912 43.7229 21.8127 44.0839 22.0426C44.3337 22.2015 44.5474 22.4111 44.711 22.6578C45.3665 23.6473 45.0955 24.9812 44.1051 25.6367C44.0807 25.6532 44.0563 25.6698 44.032 25.6854C44.0178 25.6967 44.0137 25.7147 44.021 25.7274C44.0225 25.7304 44.0256 25.7335 44.0288 25.7353C44.0399 25.744 44.0572 25.7446 44.0714 25.7335C44.6867 25.5239 45.3563 25.6193 45.8953 25.9684C46.1434 26.1276 46.3632 26.3418 46.5372 26.605C47.1927 27.5957 46.9219 28.9293 45.9324 29.5848L45.9323 29.5849Z" fill="#FDD7BD"/>
<path d="M30.6858 39.6813L26.6876 42.3291L20.915 46.152C15.571 43.9382 11.6348 39.0139 10.821 33.0932L17.5201 28.6569L21.5981 25.9563C22.0675 25.645 22.7009 25.7742 23.012 26.2445L30.974 38.2662C31.2854 38.7368 31.1561 39.3693 30.6858 39.6813Z" fill="#87DBFF"/>
<path d="M30.6859 39.6813L26.6876 42.3291L17.5201 28.6569L21.5982 25.9563C22.0675 25.645 22.701 25.7742 23.012 26.2445L30.9741 38.2662C31.2854 38.7368 31.1561 39.3693 30.6859 39.6813Z" fill="#6FC7FF"/>
<path d="M42.2617 18.0925L39.1079 19.7801C38.6604 20.0191 38.1058 19.8944 37.8048 19.487L40.2911 17.8783C40.2966 17.8887 40.3085 17.8957 40.3219 17.8901C40.567 17.7956 40.8274 17.7473 41.0901 17.7476C41.503 17.7476 41.9117 17.8667 42.2617 18.0925ZM44.0838 22.043L40.9988 23.6926C40.5512 23.9321 39.9966 23.8077 39.6956 23.4004L42.1819 21.7916L42.2893 21.7411C42.3026 21.7603 42.3301 21.7658 42.3498 21.753C42.5206 21.7118 42.6957 21.6912 42.8714 21.6915C43.2984 21.6915 43.7232 21.8127 44.0838 22.043ZM45.8952 25.9687L43.1778 27.4223C42.7314 27.661 42.1764 27.5366 41.875 27.1293L44.0288 25.7357C44.0398 25.7443 44.0571 25.7449 44.0713 25.7339C44.6866 25.5243 45.3562 25.6196 45.8952 25.9687Z" fill="#FAC5AA"/>
<path d="M47.03 26.2791C46.6359 25.6842 46.0387 25.2742 45.3444 25.1189C45.7923 24.2622 45.774 23.1933 45.2034 22.332C44.7976 21.7188 44.1853 21.3227 43.5187 21.1728C43.6391 20.9431 43.7264 20.6975 43.7779 20.4434C43.9235 19.7258 43.7814 18.9946 43.377 18.3844C42.983 17.7892 42.3857 17.3793 41.6914 17.2241C42.1393 16.3674 42.1211 15.2985 41.5505 14.4369C40.7164 13.1772 39.0123 12.8308 37.7523 13.6651L35.0242 15.4719C33.5712 14.7348 32.02 14.2099 30.4179 13.913C29.9107 13.1426 29.3206 12.4266 28.6602 11.7864L27.5316 10.6926C26.705 9.89125 25.4088 9.77095 24.4492 10.4067C23.3139 11.1585 23.0019 12.6939 23.7537 13.8292C23.7832 13.8741 23.8123 13.9194 23.8409 13.9646C20.1413 14.7132 16.7696 16.6765 14.274 19.5533C11.5659 22.6755 10.0742 26.674 10.0742 30.8123C10.0742 31.6055 10.1284 32.4002 10.2357 33.1737C11.0623 39.1869 15.0677 44.3688 20.6887 46.6978C22.7732 47.5616 24.9849 48 27.2616 48C30.8673 48 34.3188 46.8957 37.2432 44.8069C40.1041 42.7629 42.2446 39.9424 43.4335 36.65C43.4609 36.5768 43.4734 36.4989 43.4705 36.4209C43.4675 36.3428 43.4491 36.2661 43.4163 36.1952C43.3835 36.1243 43.3369 36.0606 43.2793 36.0078C43.2217 35.955 43.1542 35.9141 43.0807 35.8876C43.0073 35.8611 42.9292 35.8494 42.8512 35.8532C42.7732 35.857 42.6967 35.8763 42.6261 35.9099C42.5556 35.9435 42.4924 35.9907 42.4402 36.0489C42.3881 36.1071 42.348 36.175 42.3223 36.2488C41.2151 39.3147 39.2213 41.9414 36.5561 43.8452C33.8335 45.7903 30.6195 46.8183 27.2617 46.8183C25.5256 46.8183 23.8305 46.5443 22.2082 46.0039L27.0155 42.8203C27.0158 42.82 27.0161 42.82 27.0164 42.8197C27.0167 42.8197 27.0167 42.8194 27.0169 42.8191L31.0123 40.1734H31.0126C31.1894 40.057 31.3413 39.9066 31.4597 39.7311C31.578 39.5556 31.6604 39.3584 31.7021 39.1509C31.7879 38.729 31.7043 38.2989 31.4666 37.9402L31.4139 37.8601L32.1899 37.3461C32.7418 36.9798 33.4115 36.8351 34.0654 36.9409C35.0121 37.0938 35.9816 36.8842 36.7805 36.3537L43.2178 32.0908C43.1742 32.6474 43.1015 33.2013 43.0001 33.7503C42.9859 33.8266 42.9869 33.9049 43.003 33.9809C43.0191 34.0568 43.05 34.1288 43.0939 34.1927C43.1379 34.2567 43.194 34.3114 43.2591 34.3537C43.3242 34.3959 43.3969 34.425 43.4733 34.4391C43.5095 34.4461 43.546 34.4493 43.5816 34.4493C43.7195 34.4491 43.853 34.4006 43.9589 34.3124C44.0649 34.2241 44.1367 34.1016 44.1618 33.966C44.3256 33.085 44.4198 32.1824 44.4442 31.2787L46.2582 30.0773C46.8685 29.6731 47.285 29.0554 47.4306 28.3381C47.5764 27.6206 47.4341 26.8894 47.03 26.2791ZM33.8769 16.2314L32.0717 17.4271L31.7162 16.4695C31.5677 16.07 31.3976 15.6783 31.2092 15.295C32.1245 15.5271 33.0173 15.8405 33.8769 16.2314ZM15.1667 20.3277C17.5652 17.5628 20.8322 15.7041 24.4063 15.0597C24.9798 16.449 25.1172 18.0012 24.7745 19.4806L23.3339 25.7043C23.1067 25.4608 22.809 25.2945 22.4825 25.2286C22.2751 25.1856 22.0613 25.1844 21.8535 25.2248C21.6457 25.2652 21.4479 25.3464 21.2717 25.4639L17.1912 28.166C17.1909 28.166 17.1909 28.166 17.1906 28.1663C17.1906 28.1663 17.1903 28.1663 17.1903 28.1666L11.3049 32.0637C11.2725 31.6473 11.2561 31.2298 11.2559 30.8122C11.2559 26.9586 12.6449 23.2349 15.1666 20.3276L15.1667 20.3277ZM30.5442 38.9152C30.533 38.9707 30.511 39.0234 30.4793 39.0703C30.4477 39.1171 30.407 39.1573 30.3598 39.1884H30.3601L26.8509 41.512L20.3379 31.7989C20.2507 31.6688 20.1153 31.5786 19.9615 31.5483C19.8078 31.518 19.6483 31.55 19.5182 31.6373C19.388 31.7245 19.2979 31.8599 19.2676 32.0137C19.2373 32.1674 19.2693 32.3269 19.3565 32.457L25.8655 42.1646L20.8561 45.4822C15.8782 43.3048 12.3159 38.7068 11.4595 33.3563L17.3517 29.4671L18.0299 30.4789C18.084 30.5596 18.1571 30.6257 18.2428 30.6713C18.3286 30.717 18.4242 30.7408 18.5214 30.7407C18.6284 30.7406 18.7334 30.7114 18.8251 30.6563C18.9168 30.6011 18.9919 30.5221 19.0422 30.4277C19.0925 30.3332 19.1163 30.2269 19.1109 30.12C19.1055 30.0131 19.0712 29.9097 19.0116 29.8208L18.3381 28.8162L21.9244 26.4491C21.9712 26.4178 22.0239 26.3961 22.0793 26.3853C22.1346 26.3746 22.1916 26.375 22.2468 26.3864C22.3022 26.3976 22.3548 26.4196 22.4017 26.4512C22.4486 26.4828 22.4887 26.5233 22.5199 26.5705L30.4814 38.5928C30.5127 38.6397 30.5343 38.6923 30.545 38.7477C30.5558 38.803 30.5555 38.86 30.544 38.9152L30.5442 38.9152ZM46.2727 28.1027C46.2325 28.3035 46.1528 28.4944 46.0383 28.6643C45.9238 28.8341 45.7767 28.9796 45.6056 29.0922L43.5318 30.4655C43.5312 30.4658 43.5306 30.4664 43.5298 30.4667L36.128 35.3686C35.5761 35.735 34.9064 35.8797 34.2525 35.7739C33.3058 35.6211 32.3363 35.8307 31.5373 36.3609L30.7612 36.875L24.2404 27.0285L25.926 19.7473C26.36 17.8716 26.1313 15.8957 25.3044 14.1745C25.297 14.1566 25.2887 14.1391 25.2795 14.122C25.12 13.7955 24.9394 13.4797 24.7388 13.1766C24.3469 12.5846 24.5095 11.7841 25.1017 11.3919C25.6022 11.0605 26.2782 11.1231 26.7091 11.5409L27.8377 12.635C29.0586 13.8188 30.0168 15.2869 30.6082 16.8809L31.2228 18.5366L31.2263 18.5453L31.2309 18.5569C31.2352 18.5671 31.2393 18.5763 31.2436 18.5841C31.2555 18.6091 31.2686 18.6337 31.2842 18.6572C31.327 18.722 31.3822 18.7776 31.4465 18.821C31.5108 18.8644 31.5831 18.8947 31.6591 18.9101C31.7352 18.9256 31.8135 18.9259 31.8897 18.9111C31.9658 18.8962 32.0383 18.8665 32.103 18.8236L38.4049 14.6505C39.1216 14.176 40.0908 14.3728 40.5654 15.0895C41.0401 15.8061 40.8431 16.7753 40.1264 17.25L39.5794 17.6123C39.5794 17.6123 39.5791 17.6123 39.5788 17.6126L38.3585 18.4208C38.3568 18.4221 38.3556 18.4232 38.3539 18.4241C38.3469 18.429 38.3403 18.4337 38.3347 18.4383C38.0825 18.6235 38.0173 18.9758 38.1921 19.2396C38.235 19.3044 38.2901 19.36 38.3545 19.4034C38.4188 19.4468 38.4911 19.4771 38.5672 19.4925C38.6432 19.508 38.7216 19.5083 38.7978 19.4935C38.8739 19.4786 38.9465 19.4489 39.0111 19.406L40.2323 18.5972C40.4027 18.4839 40.5938 18.4054 40.7947 18.3664C40.9956 18.3274 41.2023 18.3286 41.4027 18.3699C41.6035 18.4101 41.7943 18.4898 41.9641 18.6043C42.1339 18.7188 42.2793 18.8659 42.3918 19.037C42.5054 19.2074 42.584 19.3986 42.6232 19.5996C42.6624 19.8006 42.6613 20.0074 42.62 20.208C42.5798 20.4088 42.5001 20.5997 42.3856 20.7696C42.2711 20.9394 42.124 21.0848 41.9529 21.1974L40.185 22.3684C40.1203 22.4112 40.0646 22.4663 40.0212 22.5307C39.9778 22.595 39.9475 22.6672 39.932 22.7433C39.9166 22.8193 39.9163 22.8977 39.9311 22.9738C39.946 23.05 39.9757 23.1225 40.0186 23.1872C40.0614 23.2519 40.1165 23.3076 40.1808 23.351C40.2452 23.3944 40.3174 23.4247 40.3934 23.4401C40.4695 23.4556 40.5478 23.4559 40.624 23.441C40.7001 23.4262 40.7726 23.3965 40.8373 23.3536L41.111 23.1723L42.0578 22.5453C42.7748 22.0707 43.7437 22.2675 44.2183 22.9842C44.6929 23.7011 44.4961 24.6701 43.7794 25.145L42.8963 25.7297C42.8917 25.7327 42.887 25.7358 42.8824 25.739L42.0114 26.3156C41.9467 26.3585 41.8911 26.4136 41.8477 26.478C41.8043 26.5423 41.774 26.6146 41.7585 26.6907C41.7431 26.7667 41.7428 26.8451 41.7576 26.9213C41.7724 26.9974 41.8022 27.07 41.845 27.1346C41.8878 27.1994 41.943 27.2551 42.0073 27.2985C42.0716 27.3419 42.1439 27.3722 42.2199 27.3876C42.296 27.4031 42.3743 27.4034 42.4505 27.3885C42.5267 27.3737 42.5992 27.344 42.6638 27.301L42.9375 27.1199C42.9375 27.1199 42.9375 27.1196 42.9378 27.1196L43.8846 26.4928C44.055 26.3792 44.2463 26.3006 44.4473 26.2614C44.6483 26.2223 44.855 26.2235 45.0556 26.2649C45.4638 26.3476 45.8152 26.5847 46.0451 26.9317C46.1585 27.1022 46.237 27.2934 46.2761 27.4944C46.3152 27.6954 46.314 27.9021 46.2727 28.1027Z" fill="black"/>
</g>
<defs>
<clipPath id="clip0_61_254">
<rect width="38" height="38" fill="white" transform="translate(10 10)"/>
</clipPath>
</defs>
</svg>
