<svg width="57" height="57" viewBox="0 0 57 57" fill="none" xmlns="http://www.w3.org/2000/svg">
<g filter="url(#filter0_di_62_11595)">
<circle cx="28.0272" cy="28.0272" r="23.0272" fill="white"/>
</g>
<path fill-rule="evenodd" clip-rule="evenodd" d="M37.3306 23.0595C37.3307 23.3641 37.2406 23.662 37.0719 23.9154C36.9031 24.1688 36.6632 24.3663 36.3825 24.4829C36.1018 24.5996 35.7929 24.6302 35.4948 24.5708C35.1968 24.5114 34.923 24.3647 34.7081 24.1493C34.4932 23.9339 34.3468 23.6594 34.2875 23.3606C34.2282 23.0618 34.2586 22.752 34.3748 22.4705C34.4911 22.189 34.688 21.9484 34.9407 21.7791C35.1933 21.6099 35.4904 21.5195 35.7942 21.5195C36.2015 21.5199 36.592 21.6823 36.88 21.971C37.168 22.2597 37.33 22.6511 37.3306 23.0595ZM35.7942 19.3646C35.2467 19.3631 34.7042 19.4705 34.1984 19.6806C33.6925 19.8908 33.2332 20.1994 32.8471 20.5887C32.8089 20.6265 32.7786 20.6715 32.7578 20.7211C32.7371 20.7708 32.7263 20.824 32.7262 20.8778C32.726 20.9316 32.7364 20.9849 32.7569 21.0346C32.7774 21.0843 32.8074 21.1295 32.8454 21.1676C32.8833 21.2056 32.9284 21.2357 32.978 21.2562C33.0276 21.2767 33.0807 21.2872 33.1344 21.2871C33.188 21.2869 33.2411 21.2761 33.2906 21.2553C33.3401 21.2345 33.3849 21.204 33.4227 21.1658C34.0521 20.536 34.905 20.1823 35.7943 20.1823C36.6835 20.1823 37.5364 20.536 38.1659 21.1658C38.2034 21.205 38.2483 21.2364 38.298 21.258C38.3477 21.2796 38.4013 21.291 38.4555 21.2916C38.5096 21.2922 38.5634 21.2819 38.6136 21.2614C38.6638 21.2408 38.7094 21.2105 38.7477 21.172C38.786 21.1336 38.8162 21.0879 38.8367 21.0376C38.8572 20.9873 38.8674 20.9334 38.8668 20.879C38.8662 20.8247 38.8548 20.771 38.8332 20.7212C38.8116 20.6713 38.7804 20.6263 38.7412 20.5887C38.3552 20.1994 37.8959 19.8907 37.3901 19.6806C36.8842 19.4704 36.3418 19.363 35.7942 19.3646ZM31.3277 19.0651C31.2544 19.1422 31.214 19.245 31.2153 19.3515C31.2166 19.4581 31.2594 19.5599 31.3345 19.6352C31.4096 19.7105 31.5112 19.7534 31.6174 19.7547C31.7237 19.756 31.8262 19.7155 31.9031 19.642C32.936 18.6088 34.3353 18.0286 35.7943 18.0286C37.2532 18.0286 38.6526 18.6088 39.6854 19.642C39.7617 19.7186 39.8652 19.7616 39.9732 19.7617C40.0811 19.7618 40.1847 19.7188 40.261 19.6423C40.3374 19.5659 40.3804 19.4621 40.3804 19.3538C40.3805 19.2456 40.3377 19.1418 40.2614 19.0652C39.0758 17.8791 37.4694 17.213 35.7946 17.213C34.1198 17.2129 32.5134 17.8791 31.3279 19.0651L31.3277 19.0651ZM41.7809 17.5414C40.1932 15.9495 38.0398 15.0552 35.7944 15.0552C33.549 15.0552 31.3956 15.9495 29.8079 17.5414C29.7701 17.5793 29.7401 17.6243 29.7197 17.6738C29.6992 17.7233 29.6887 17.7764 29.6887 17.83C29.6887 17.9382 29.7316 18.042 29.808 18.1185C29.8843 18.195 29.9878 18.238 30.0958 18.238C30.2037 18.238 30.3073 18.1949 30.3836 18.1184C31.8186 16.6796 33.7649 15.8713 35.7943 15.8713C37.8237 15.8713 39.77 16.6796 41.205 18.1184C41.2813 18.195 41.3848 18.238 41.4928 18.2381C41.6008 18.2381 41.7043 18.1951 41.7807 18.1186C41.8571 18.0421 41.9 17.9383 41.9001 17.83C41.9001 17.7218 41.8573 17.6179 41.7809 17.5414ZM32.8438 30.7309H31.1114C31.0035 30.7309 30.9 30.7739 30.8237 30.8504C30.7474 30.927 30.7045 31.0308 30.7045 31.139C30.7045 31.2472 30.7474 31.351 30.8237 31.4275C30.9 31.504 31.0035 31.547 31.1114 31.547H32.8438C32.9517 31.547 33.0552 31.504 33.1316 31.4275C33.2079 31.351 33.2508 31.2472 33.2508 31.139C33.2508 31.0308 33.2079 30.927 33.1316 30.8504C33.0552 30.7739 32.9517 30.7309 32.8438 30.7309ZM21.8339 29.9133C21.5914 29.9132 21.3543 29.9852 21.1526 30.1202C20.9509 30.2552 20.7936 30.4471 20.7007 30.6718C20.6079 30.8964 20.5835 31.1436 20.6307 31.382C20.678 31.6205 20.7947 31.8396 20.9661 32.0116C21.1376 32.1836 21.356 32.3007 21.5938 32.3482C21.8317 32.3957 22.0782 32.3714 22.3023 32.2784C22.5263 32.1853 22.7179 32.0278 22.8526 31.8256C22.9873 31.6234 23.0593 31.3858 23.0593 31.1426C23.0589 30.8168 22.9297 30.5044 22.7 30.274C22.4703 30.0436 22.1588 29.9139 21.8339 29.9133ZM18.9652 29.9133C18.7227 29.9133 18.4856 29.9853 18.2839 30.1203C18.0823 30.2554 17.9251 30.4473 17.8322 30.6719C17.7394 30.8965 17.715 31.1437 17.7623 31.3822C17.8096 31.6207 17.9263 31.8398 18.0977 32.0117C18.2692 32.1837 18.4876 32.3008 18.7255 32.3482C18.9633 32.3957 19.2098 32.3714 19.4339 32.2783C19.6579 32.1853 19.8494 32.0277 19.9842 31.8256C20.1189 31.6234 20.1908 31.3857 20.1908 31.1426C20.1904 30.8168 20.0612 30.5044 19.8314 30.274C19.6016 30.0435 19.2901 29.9138 18.9652 29.9133ZM36.3871 29.5749V36.4901C36.3864 36.8783 36.2323 37.2504 35.9585 37.5248C35.6847 37.7992 35.3135 37.9536 34.9263 37.954H32.077V40.5917C32.077 40.6999 32.0342 40.8037 31.9578 40.8803C31.8815 40.9568 31.778 40.9998 31.6701 40.9998H20.6721C20.5641 40.9998 20.4606 40.9568 20.3843 40.8803C20.308 40.8037 20.2651 40.6999 20.2651 40.5917V37.9542H17.4153C17.0282 37.9538 16.6571 37.7993 16.3834 37.5249C16.1097 37.2504 15.9557 36.8782 15.9553 36.4901V29.5749C15.9558 29.1868 16.1097 28.8147 16.3834 28.5402C16.6571 28.2658 17.0283 28.1114 17.4153 28.111H18.5563V24.5823C18.5563 24.4741 18.5992 24.3703 18.6755 24.2938C18.7519 24.2173 18.8554 24.1743 18.9633 24.1743H20.2669C20.2757 24.0798 20.3172 23.9914 20.3842 23.9243L23.6693 20.6336C23.7071 20.5957 23.7519 20.5656 23.8013 20.5451C23.8506 20.5246 23.9035 20.514 23.9569 20.514H31.6699C31.7779 20.514 31.8814 20.557 31.9577 20.6335C32.034 20.71 32.0769 20.8138 32.0769 20.9221V24.1741H33.3789C33.4868 24.1741 33.5904 24.2171 33.6667 24.2936C33.743 24.3702 33.7859 24.4739 33.7859 24.5822V28.1108H34.9264C35.3136 28.1112 35.6848 28.2656 35.9586 28.54C36.2325 28.8145 36.3866 29.1867 36.3871 29.5749ZM21.0789 28.111H31.263V21.3303H24.3612V23.6181C24.3608 23.8841 24.2552 24.1391 24.0676 24.3271C23.8799 24.5152 23.6256 24.621 23.3603 24.6213H21.0789V28.111ZM29.3074 38.3168C29.3074 38.2085 29.2646 38.1047 29.1882 38.0282C29.1119 37.9517 29.0084 37.9087 28.9005 37.9087H23.4419C23.334 37.9087 23.2305 37.9517 23.1541 38.0282C23.0778 38.1047 23.0349 38.2085 23.0349 38.3168C23.0349 38.425 23.0778 38.5288 23.1541 38.6053C23.2305 38.6818 23.334 38.7248 23.4419 38.7248H28.9005C29.0084 38.7248 29.1119 38.6818 29.1882 38.6053C29.2646 38.5288 29.3074 38.425 29.3074 38.3168ZM29.3074 36.041C29.3074 35.9328 29.2646 35.829 29.1882 35.7525C29.1119 35.676 29.0084 35.633 28.9005 35.633H23.4419C23.334 35.633 23.2305 35.676 23.1541 35.7525C23.0778 35.829 23.0349 35.9328 23.0349 36.041C23.0349 36.1492 23.0778 36.253 23.1541 36.3296C23.2305 36.4061 23.334 36.4491 23.4419 36.4491H28.9005C29.0084 36.4491 29.1119 36.4061 29.1882 36.3296C29.2646 36.253 29.3074 36.1492 29.3074 36.041ZM35.5731 29.5749C35.5728 29.4031 35.5046 29.2383 35.3833 29.1169C35.2621 28.9954 35.0977 28.9272 34.9263 28.9271H17.4153C17.244 28.9273 17.0798 28.9956 16.9587 29.117C16.8376 29.2385 16.7694 29.4031 16.7693 29.5749V36.4901C16.7695 36.6618 16.8377 36.8264 16.9588 36.9479C17.0799 37.0693 17.2441 37.1376 17.4153 37.1379H20.2649V34.1739H19.4984C19.3905 34.1739 19.287 34.1309 19.2107 34.0544C19.1343 33.9779 19.0915 33.8741 19.0915 33.7658C19.0915 33.6576 19.1343 33.5538 19.2107 33.4773C19.287 33.4008 19.3905 33.3578 19.4984 33.3578H32.8438C32.9517 33.3578 33.0552 33.4008 33.1316 33.4773C33.2079 33.5538 33.2508 33.6576 33.2508 33.7658C33.2508 33.8741 33.2079 33.9779 33.1316 34.0544C33.0552 34.1309 32.9517 34.1739 32.8438 34.1739H32.077V37.1381H34.9263C35.0977 37.1379 35.262 37.0697 35.3833 36.9482C35.5045 36.8268 35.5728 36.6621 35.5731 36.4903V29.5749Z" fill="#01A301"/>
<defs>
<filter id="filter0_di_62_11595" x="0" y="0" width="56.0544" height="56.0542" filterUnits="userSpaceOnUse" color-interpolation-filters="sRGB">
<feFlood flood-opacity="0" result="BackgroundImageFix"/>
<feColorMatrix in="SourceAlpha" type="matrix" values="0 0 0 0 0 0 0 0 0 0 0 0 0 0 0 0 0 0 127 0" result="hardAlpha"/>
<feOffset/>
<feGaussianBlur stdDeviation="2.5"/>
<feComposite in2="hardAlpha" operator="out"/>
<feColorMatrix type="matrix" values="0 0 0 0 0 0 0 0 0 0 0 0 0 0 0 0 0 0 0.25 0"/>
<feBlend mode="normal" in2="BackgroundImageFix" result="effect1_dropShadow_62_11595"/>
<feBlend mode="normal" in="SourceGraphic" in2="effect1_dropShadow_62_11595" result="shape"/>
<feColorMatrix in="SourceAlpha" type="matrix" values="0 0 0 0 0 0 0 0 0 0 0 0 0 0 0 0 0 0 127 0" result="hardAlpha"/>
<feOffset dy="2"/>
<feGaussianBlur stdDeviation="1"/>
<feComposite in2="hardAlpha" operator="arithmetic" k2="-1" k3="1"/>
<feColorMatrix type="matrix" values="0 0 0 0 0 0 0 0 0 0 0 0 0 0 0 0 0 0 0.19 0"/>
<feBlend mode="normal" in2="shape" result="effect2_innerShadow_62_11595"/>
</filter>
</defs>
</svg>
