<svg width="22" height="20" viewBox="0 0 22 20" fill="none" xmlns="http://www.w3.org/2000/svg">
<path d="M21.7145 8.49234C22.2736 7.97358 21.965 7.06979 21.1924 6.96299L15.2235 6.13746C15.0733 6.11728 14.9304 6.06215 14.8069 5.97677C14.6834 5.89138 14.583 5.77827 14.5142 5.64707L11.845 0.499866C11.4993 -0.166622 10.5008 -0.166622 10.1551 0.499866L7.48589 5.64707C7.41706 5.77831 7.3166 5.89144 7.19307 5.97682C7.06954 6.06221 6.92659 6.11732 6.77641 6.13746L0.807703 6.96299C0.0350331 7.06979 -0.273703 7.97358 0.285568 8.49234L4.60454 12.4988C4.71354 12.5992 4.79533 12.7242 4.84262 12.8626C4.8899 13.0011 4.90123 13.1488 4.87559 13.2926L3.85589 18.9499C3.72397 19.6823 4.53174 20.2409 5.22294 19.895L10.5616 17.224C10.6973 17.1563 10.8475 17.121 11 17.121C11.1525 17.121 11.3028 17.1563 11.4385 17.224L16.777 19.895C17.4682 20.2409 18.2761 19.6823 18.144 18.9499L17.1245 13.2926C17.0989 13.1488 17.1102 13.0011 17.1575 12.8626C17.2048 12.7242 17.2865 12.5992 17.3955 12.4988L21.7145 8.49234Z" fill="#FFAE00"/>
</svg>
