<svg width="88" height="88" viewBox="0 0 88 88" fill="none" xmlns="http://www.w3.org/2000/svg">
<path d="M85.25 44C85.25 47.52 80.9256 50.4212 80.0594 53.6662C79.1656 57.0212 81.4275 61.6963 79.7294 64.6319C78.0038 67.6156 72.8131 67.9731 70.3931 70.3931C67.9731 72.8131 67.6156 78.0038 64.6319 79.7294C61.6963 81.4275 57.0212 79.1656 53.6662 80.0594C50.4212 80.9256 47.52 85.25 44 85.25C40.48 85.25 37.5788 80.9256 34.3337 80.0594C30.9787 79.1656 26.3038 81.4275 23.3681 79.7294C20.3844 78.0038 20.0269 72.8131 17.6069 70.3931C15.1869 67.9731 9.99625 67.6156 8.27062 64.6319C6.5725 61.6963 8.83437 57.0212 7.94063 53.6662C7.07438 50.4212 2.75 47.52 2.75 44C2.75 40.48 7.07438 37.5788 7.94063 34.3337C8.83437 30.9787 6.5725 26.3038 8.27062 23.3681C9.99625 20.3844 15.1869 20.0269 17.6069 17.6069C20.0269 15.1869 20.3844 9.99625 23.3681 8.27062C26.3038 6.5725 30.9787 8.83437 34.3337 7.94063C37.5788 7.07438 40.48 2.75 44 2.75C47.52 2.75 50.4212 7.07438 53.6662 7.94063C57.0212 8.83437 61.6963 6.5725 64.6319 8.27062C67.6156 9.99625 67.9731 15.1869 70.3931 17.6069C72.8131 20.0269 78.0038 20.3844 79.7294 23.3681C81.4275 26.3038 79.1656 30.9787 80.0594 34.3337C80.9256 37.5788 85.25 40.48 85.25 44Z" fill="#01A301"/>
<path d="M55.9217 31.7074L40.2192 47.4099L32.0792 39.2768C31.2303 38.4283 30.0792 37.9517 28.8789 37.9517C27.6787 37.9517 26.5275 38.4283 25.6786 39.2768C24.8301 40.1257 24.3535 41.2768 24.3535 42.4771C24.3535 43.6773 24.8301 44.8285 25.6786 45.6774L37.098 57.0968C37.9243 57.9221 39.0444 58.3858 40.2124 58.3858C41.3803 58.3858 42.5004 57.9221 43.3267 57.0968L62.3155 38.108C63.1639 37.2591 63.6406 36.108 63.6406 34.9077C63.6406 33.7075 63.1639 32.5563 62.3155 31.7074C61.8958 31.2873 61.3974 30.9541 60.8489 30.7267C60.3004 30.4994 59.7124 30.3823 59.1186 30.3823C58.5248 30.3823 57.9368 30.4994 57.3883 30.7267C56.8398 30.9541 56.3414 31.2873 55.9217 31.7074Z" fill="#FFFCEE"/>
</svg>
