<svg width="118" height="112" viewBox="0 0 118 112" fill="none" xmlns="http://www.w3.org/2000/svg">
<path fill-rule="evenodd" clip-rule="evenodd" d="M44.1286 7.00245C45.9457 3.05668 50.6313 0 55.9724 0C61.3167 0 65.9991 3.05668 67.8195 7.00245C71.3677 4.49416 76.9538 4.18914 81.5794 6.8613C86.2049 9.53346 88.7343 14.5208 88.3385 18.8479C92.6655 18.4504 97.6513 20.9798 100.325 25.6053C102.999 30.2309 102.692 35.817 100.182 39.3653C104.13 41.1856 107.185 45.868 107.185 51.2123C107.185 56.555 104.13 61.239 100.182 63.0561C102.692 66.6076 102.997 72.1905 100.325 76.8177C97.6529 81.4449 92.6655 83.9726 88.3385 83.5751C88.7343 87.9038 86.2066 92.8912 81.5794 95.5617C76.9538 98.2339 71.3677 97.9305 67.8211 95.4222C66.0007 99.3679 61.3167 102.425 55.974 102.425C50.6313 102.425 45.9474 99.3679 44.1286 95.4222C40.5787 97.9288 34.9943 98.2339 30.3687 95.5617C25.7399 92.8912 23.2121 87.9038 23.6112 83.5751C19.2826 83.9742 14.2936 81.4449 11.6214 76.8177C8.95248 72.1905 9.25425 66.6076 11.7642 63.0577C7.81677 61.2406 4.76172 56.555 4.76172 51.2123C4.76172 45.868 7.81677 41.1856 11.7642 39.3653C9.25425 35.817 8.95248 30.2309 11.623 25.607C14.2936 20.9798 19.2809 18.452 23.6112 18.8479C23.2121 14.5208 25.7399 9.53346 30.3687 6.8613C34.9959 4.18914 40.5787 4.49254 44.1286 7.00245Z" fill="#01A301"/>
<path fill-rule="evenodd" clip-rule="evenodd" d="M91.0906 65.3957C91.2087 65.0855 91.4182 64.8185 91.6914 64.6302C91.9647 64.4418 92.2887 64.341 92.6206 64.341C92.9524 64.341 93.2765 64.4418 93.5497 64.6302C93.8229 64.8185 94.0325 65.0855 94.1505 65.3957C95.3511 68.5448 96.8113 72.3949 96.8113 72.3949C97.0774 73.0947 97.4889 73.7301 98.0186 74.2592C98.5483 74.7884 99.1841 75.1992 99.8842 75.4645L106.883 78.1286C107.193 78.2472 107.458 78.4568 107.646 78.7297C107.833 79.0025 107.934 79.3258 107.934 79.6569C107.934 79.988 107.833 80.3113 107.646 80.5842C107.458 80.857 107.193 81.0666 106.883 81.1852L99.8842 83.8477C99.1841 84.113 98.5483 84.5238 98.0186 85.053C97.4889 85.5821 97.0774 86.2175 96.8113 86.9173C96.8113 86.9173 95.3511 90.7674 94.1505 93.9165C94.0325 94.2267 93.8229 94.4937 93.5497 94.682C93.2765 94.8704 92.9524 94.9712 92.6206 94.9712C92.2887 94.9712 91.9647 94.8704 91.6914 94.682C91.4182 94.4937 91.2087 94.2267 91.0906 93.9165C89.8965 90.769 88.4298 86.9173 88.4298 86.9173C88.1649 86.2178 87.7547 85.5825 87.2261 85.0534C86.6975 84.5242 86.0626 84.1133 85.3634 83.8477L78.3626 81.1852C77.7249 80.9435 77.308 80.3367 77.308 79.6569C77.308 78.9771 77.7249 78.3687 78.3626 78.1286C81.5117 76.928 85.3618 75.4645 85.3618 75.4645C86.0618 75.1997 86.6975 74.789 87.2267 74.2598C87.7559 73.7306 88.1666 73.0949 88.4314 72.3949L91.0906 65.3957ZM27.6159 2.4093C27.6977 2.19511 27.8427 2.01081 28.0316 1.88079C28.2205 1.75077 28.4444 1.68115 28.6737 1.68115C28.903 1.68115 29.1269 1.75077 29.3158 1.88079C29.5047 2.01081 29.6497 2.19511 29.7315 2.4093L31.5876 7.30096C31.7728 7.78803 32.0591 8.23031 32.4277 8.59862C32.7963 8.96694 33.2388 9.25293 33.726 9.43772L38.6193 11.297C38.8335 11.3789 39.0178 11.5239 39.1478 11.7128C39.2778 11.9016 39.3474 12.1255 39.3474 12.3549C39.3474 12.5842 39.2778 12.8081 39.1478 12.997C39.0178 13.1859 38.8335 13.3308 38.6193 13.4127L33.7276 15.272C33.2401 15.4566 32.7973 15.7425 32.4284 16.1108C32.0595 16.4792 31.773 16.9215 31.5876 17.4088L29.7315 22.3004C29.6497 22.5146 29.5047 22.6989 29.3158 22.8289C29.1269 22.959 28.903 23.0286 28.6737 23.0286C28.4444 23.0286 28.2205 22.959 28.0316 22.8289C27.8427 22.6989 27.6977 22.5146 27.6159 22.3004L25.7566 17.4088C25.572 16.9216 25.2861 16.4792 24.9178 16.1108C24.5494 15.7424 24.107 15.4565 23.6198 15.272L18.7282 13.4127C18.514 13.3308 18.3297 13.1859 18.1996 12.997C18.0696 12.8081 18 12.5842 18 12.3549C18 12.1255 18.0696 11.9016 18.1996 11.7128C18.3297 11.5239 18.514 11.3789 18.7282 11.297L23.6198 9.43609C24.107 9.25201 24.5494 8.96644 24.9178 8.59833C25.2862 8.23022 25.5721 7.78799 25.7566 7.30096L27.6159 2.4093Z" fill="#FDBE00"/>
<path fill-rule="evenodd" clip-rule="evenodd" d="M11.8725 71.3501C11.9314 71.1956 12.0359 71.0626 12.172 70.9688C12.3082 70.8749 12.4697 70.8247 12.635 70.8247C12.8004 70.8247 12.9619 70.8749 13.098 70.9688C13.2342 71.0626 13.3387 71.1956 13.3976 71.3501L14.7361 74.8756C14.8696 75.2267 15.0759 75.5454 15.3416 75.8108C15.6073 76.0762 15.9263 76.2822 16.2774 76.4153L19.803 77.7555C19.9575 77.8144 20.0905 77.9188 20.1843 78.055C20.2781 78.1912 20.3283 78.3526 20.3283 78.518C20.3283 78.6834 20.2781 78.8448 20.1843 78.981C20.0905 79.1172 19.9575 79.2216 19.803 79.2806L16.2774 80.6191C15.9261 80.7523 15.607 80.9586 15.3414 81.2243C15.0757 81.49 14.8694 81.8091 14.7361 82.1604L13.3976 85.6843C13.3387 85.8388 13.2342 85.9718 13.098 86.0656C12.9619 86.1595 12.8004 86.2097 12.635 86.2097C12.4697 86.2097 12.3082 86.1595 12.172 86.0656C12.0359 85.9718 11.9314 85.8388 11.8725 85.6843L10.5324 82.1588C10.3995 81.8079 10.1937 81.4892 9.9286 81.2238C9.66346 80.9584 9.345 80.7523 8.99428 80.6191L5.46872 79.2789C5.31421 79.22 5.18123 79.1156 5.08741 78.9794C4.9936 78.8432 4.94336 78.6818 4.94336 78.5164C4.94336 78.351 4.9936 78.1896 5.08741 78.0534C5.18123 77.9172 5.31421 77.8127 5.46872 77.7538L8.99428 76.4153C9.34511 76.2823 9.66366 76.0762 9.92882 75.8108C10.194 75.5454 10.3997 75.2266 10.5324 74.8756L11.8725 71.3501Z" fill="#FF5D14"/>
<path fill-rule="evenodd" clip-rule="evenodd" d="M10.2252 42.9943C9.79665 42.8891 9.36354 42.8035 8.9272 42.7379C6.08144 42.3031 4.24971 42.4783 3.18052 42.9148C2.07888 43.3642 1.55808 44.0943 1.3861 44.8942C1.21412 45.6989 1.4364 46.6707 2.05941 47.6361C2.77491 48.7458 4.0323 49.8945 5.44382 50.7106C6.65741 51.4131 7.98132 51.8658 9.16083 51.9031C10.6048 51.9518 11.8638 51.4277 12.6734 50.1541C13.2202 49.2942 13.4992 48.2737 13.5398 47.1429C15.7122 48.6761 17.3525 50.9085 18.6083 53.4266C18.6796 53.5696 18.7783 53.6973 18.8989 53.8022C19.0195 53.9071 19.1596 53.9872 19.3111 54.038C19.4627 54.0888 19.6228 54.1092 19.7822 54.0981C19.9417 54.087 20.0974 54.0446 20.2405 53.9733C20.3835 53.9021 20.5112 53.8033 20.6161 53.6827C20.721 53.5621 20.8011 53.422 20.8519 53.2705C20.9027 53.1189 20.9231 52.9588 20.912 52.7994C20.9009 52.6399 20.8585 52.4842 20.7872 52.3412C19.0188 48.7913 16.5494 45.7816 13.1504 44.0716C13.0758 43.7909 12.9914 43.5054 12.8973 43.2182C11.0704 37.6613 5.6158 30.8633 2.04806 27.5373C1.93119 27.4282 1.79398 27.3432 1.64427 27.2871C1.49456 27.2311 1.33526 27.2051 1.17549 27.2106C1.01572 27.2161 0.858595 27.253 0.713089 27.3192C0.567583 27.3854 0.436545 27.4797 0.327458 27.5965C0.21837 27.7134 0.133369 27.8506 0.0773077 28.0003C0.0212459 28.15 -0.00477857 28.3093 0.00072043 28.4691C0.00621943 28.6289 0.0431338 28.786 0.109356 28.9315C0.175579 29.077 0.269812 29.208 0.386677 29.3171C3.26489 31.999 7.46052 37.0691 9.68164 41.7547C9.87957 42.1717 10.0613 42.5854 10.2252 42.9943ZM11.0331 45.7979C10.235 45.4913 9.40592 45.2721 8.56053 45.144C6.67201 44.8568 5.34323 44.8406 4.46062 45.0548C4.25919 45.0957 4.06611 45.1703 3.88953 45.2754C3.83112 45.3144 3.77758 45.3484 3.76622 45.4052C3.70781 45.681 3.89277 45.9828 4.10693 46.3138C4.64234 47.1494 5.60444 47.9898 6.6639 48.6047C7.50757 49.093 8.41938 49.4451 9.24033 49.4711C9.79683 49.4889 10.3063 49.338 10.6194 48.8464C11.1175 48.0644 11.2035 47.0747 11.0591 45.9747L11.0331 45.7979ZM103.395 37.8317C102.896 38.0085 102.391 38.2097 101.887 38.4385C98.03 40.1826 94.1572 43.4356 92.6175 48.0871C92.5158 48.3937 92.5397 48.7282 92.6842 49.0171C92.8287 49.306 93.0818 49.5259 93.3882 49.6284C93.695 49.7296 94.0294 49.7049 94.318 49.5598C94.6067 49.4147 94.826 49.1611 94.9279 48.8545C96.0198 45.5529 98.5248 43.1079 101.225 41.5195C101.734 41.2193 102.253 40.9484 102.772 40.7083C102.587 42.4378 102.798 43.9158 103.275 44.9331C103.855 46.171 104.809 46.8443 105.967 46.8881C106.919 46.9222 108.128 46.4825 109.447 45.204C111.079 43.627 111.947 42.2934 112.29 41.2518C112.609 40.2718 112.523 39.459 112.205 38.8116C111.722 37.8252 110.591 37.1211 108.946 36.9604C108.052 36.8882 107.152 36.9302 106.269 37.0854C107.86 33.503 111.224 29.6513 116.952 27.4789C117.254 27.3644 117.498 27.1348 117.631 26.8404C117.763 26.546 117.774 26.211 117.659 25.9092C117.545 25.6073 117.315 25.3633 117.021 25.2308C116.726 25.0983 116.391 25.0882 116.089 25.2026C108.707 28.0013 104.846 33.3148 103.395 37.8317ZM105.383 39.7543C105.18 40.6313 105.101 41.5324 105.149 42.4313C105.187 43.0056 105.294 43.507 105.477 43.9012C105.584 44.13 105.707 44.3231 105.889 44.4123C106.084 44.5096 106.319 44.4431 106.598 44.3117C106.955 44.143 107.34 43.8574 107.757 43.4534C108.811 42.4313 109.494 41.5649 109.84 40.8316C110.028 40.4341 110.141 40.1258 110.021 39.8841C109.966 39.7705 109.851 39.7007 109.721 39.6358C109.402 39.4908 109.059 39.405 108.709 39.3827C107.779 39.2919 106.627 39.4201 105.383 39.7543Z" fill="#575C69"/>
<path d="M38.479 111.697C40.8168 111.697 42.712 109.802 42.712 107.464C42.712 105.126 40.8168 103.231 38.479 103.231C36.1412 103.231 34.2461 105.126 34.2461 107.464C34.2461 109.802 36.1412 111.697 38.479 111.697Z" fill="#FDBE00"/>
<path d="M75.8169 10.6773C78.1547 10.6773 80.0498 8.78214 80.0498 6.44436C80.0498 4.10658 78.1547 2.21143 75.8169 2.21143C73.4791 2.21143 71.584 4.10658 71.584 6.44436C71.584 8.78214 73.4791 10.6773 75.8169 10.6773Z" fill="#FF5D14"/>
<path fill-rule="evenodd" clip-rule="evenodd" d="M36.2899 56.3106L46.6474 66.6156C47.0741 67.0395 47.5841 67.3741 48.1464 67.599C48.7088 67.8239 49.3119 67.9345 49.9191 67.9241C50.5264 67.9137 51.1252 67.7826 51.6792 67.5385C52.2332 67.2945 52.731 66.9427 53.1423 66.5045L75.8716 42.238C76.6512 41.3756 77.0543 40.2474 76.9941 39.0964C76.934 37.9454 76.4154 36.8636 75.55 36.0839C74.6846 35.3041 73.5417 34.8888 72.3671 34.9273C71.1926 34.9657 70.0805 35.455 69.2701 36.2896L49.7262 57.1555L42.6728 50.1374C41.8379 49.3075 40.7011 48.8367 39.5124 48.8285C38.3236 48.8203 37.1802 49.2752 36.3334 50.0934C35.4878 50.9124 35.0083 52.027 35.0001 53.1925C34.992 54.358 35.4559 55.4803 36.2899 56.3106Z" fill="white"/>
</svg>
