<svg width="58" height="58" viewBox="0 0 58 58" fill="none" xmlns="http://www.w3.org/2000/svg">
<circle cx="29" cy="29" r="29" fill="#0AA89E" fill-opacity="0.19"/>
<path fill-rule="evenodd" clip-rule="evenodd" d="M31.3968 41.5354C31.5156 41.4166 31.6766 41.3498 31.8446 41.3498H35.9666C39.4645 41.3498 42.3 38.5144 42.3 35.0165V24.8831C42.3 21.3852 39.4645 18.5498 35.9666 18.5498H19.5C16.0021 18.5498 13.1666 21.3852 13.1666 24.8831V35.0165C13.1666 38.5144 16.0021 41.3498 19.5 41.3498H23.2325C23.4005 41.3498 23.5615 41.4166 23.6803 41.5354L26.4188 44.2739C26.7157 44.5708 27.1185 44.7376 27.5384 44.7376C27.9583 44.7376 28.361 44.5708 28.658 44.2739L31.3968 41.5354Z" fill="#027EF1"/>
<path fill-rule="evenodd" clip-rule="evenodd" d="M18.8666 24.5665C18.8666 24.2305 19 23.9083 19.2376 23.6708C19.4751 23.4333 19.7973 23.2998 20.1332 23.2998H24.5666C24.9025 23.2998 25.2247 23.4333 25.4622 23.6708C25.6998 23.9083 25.8332 24.2305 25.8332 24.5665C25.8332 24.9024 25.6998 25.2246 25.4622 25.4621C25.2247 25.6997 24.9025 25.8331 24.5666 25.8331H20.1332C19.7973 25.8331 19.4751 25.6997 19.2376 25.4621C19 25.2246 18.8666 24.9024 18.8666 24.5665ZM18.8666 34.6998C18.8666 34.3639 19 34.0417 19.2376 33.8041C19.4751 33.5666 19.7973 33.4331 20.1332 33.4331H35.3332C35.6692 33.4331 35.9914 33.5666 36.2289 33.8041C36.4665 34.0417 36.5999 34.3639 36.5999 34.6998C36.5999 35.0357 36.4665 35.3579 36.2289 35.5955C35.9914 35.833 35.6692 35.9665 35.3332 35.9665H20.1332C19.7973 35.9665 19.4751 35.833 19.2376 35.5955C19 35.3579 18.8666 35.0357 18.8666 34.6998ZM18.8666 29.6331C18.8666 29.2972 19 28.975 19.2376 28.7375C19.4751 28.4999 19.7973 28.3665 20.1332 28.3665H26.7832C27.1192 28.3665 27.4414 28.4999 27.6789 28.7375C27.9165 28.975 28.0499 29.2972 28.0499 29.6331C28.0499 29.9691 27.9165 30.2913 27.6789 30.5288C27.4414 30.7664 27.1192 30.8998 26.7832 30.8998H20.1332C19.7973 30.8998 19.4751 30.7664 19.2376 30.5288C19 30.2913 18.8666 29.9691 18.8666 29.6331Z" fill="white"/>
<path d="M44.8333 22.0332C44.8333 26.9301 40.8636 30.8998 35.9666 30.8998C31.0697 30.8998 27.1 26.9301 27.1 22.0332C27.1 17.1362 31.0697 13.1665 35.9666 13.1665C40.8636 13.1665 44.8333 17.1362 44.8333 22.0332Z" fill="#FFBA33"/>
<path fill-rule="evenodd" clip-rule="evenodd" d="M34.6208 19.1974C35.0641 17.9212 36.8691 17.9212 37.3125 19.1974L37.5436 19.8624L38.2476 19.8766C39.5982 19.9042 40.1561 21.6208 39.0795 22.4369L38.5183 22.8621L38.7223 23.536C39.1137 24.8293 37.6535 25.8901 36.5445 25.1184L35.9666 24.7162L35.3887 25.1184C34.2797 25.8901 32.8196 24.8293 33.211 23.536L33.4146 22.8621L32.8541 22.4369C31.7774 21.6208 32.3348 19.9042 33.6857 19.8766L34.3896 19.8624L34.6208 19.1974Z" fill="white"/>
</svg>
