<svg width="57" height="57" viewBox="0 0 57 57" fill="none" xmlns="http://www.w3.org/2000/svg">
<g filter="url(#filter0_di_62_11606)">
<circle cx="28.0272" cy="28.0272" r="23.0272" fill="white"/>
</g>
<path d="M27.9833 38.0002C28.8467 38.0002 29.5466 37.3003 29.5466 36.4369C29.5466 35.5735 28.8467 34.8735 27.9833 34.8735C27.1199 34.8735 26.4199 35.5735 26.4199 36.4369C26.4199 37.3003 27.1199 38.0002 27.9833 38.0002Z" fill="#01A301"/>
<path d="M39.9042 23.2352C36.7903 19.8942 32.5737 18.0542 28.0306 18.0542C23.488 18.0542 19.2713 19.8942 16.1574 23.2352C15.8007 23.618 15.8218 24.2175 16.2045 24.5743C16.5874 24.931 17.1869 24.91 17.5437 24.5272C20.2951 21.575 24.0195 19.9492 28.031 19.9492C32.0421 19.9492 35.7665 21.575 38.518 24.5272C38.6065 24.6225 38.7138 24.6984 38.8331 24.7503C38.9524 24.8022 39.0812 24.8288 39.2113 24.8287C39.4426 24.8287 39.6745 24.7444 39.8571 24.5743C40.2398 24.2175 40.261 23.618 39.9042 23.2352Z" fill="#01A301"/>
<path d="M36.4253 27.1475C34.1235 24.8283 31.1423 23.5512 28.0308 23.5513C24.9185 23.5513 21.9373 24.8285 19.6362 27.1476C19.2677 27.519 19.27 28.1189 19.6415 28.4875C20.0129 28.8561 20.6128 28.8537 20.9814 28.4823C22.9239 26.5245 25.4275 25.4463 28.0308 25.4462C30.6334 25.4461 33.1369 26.5244 35.0802 28.4824C35.1682 28.5713 35.273 28.6418 35.3884 28.6898C35.5038 28.7379 35.6277 28.7626 35.7527 28.7624C36.0029 28.7627 36.2429 28.6638 36.4202 28.4874C36.7916 28.1188 36.7939 27.5189 36.4253 27.1475ZM32.6333 31.0717C31.4006 29.8504 29.6337 29.0918 28.022 29.0918H27.9523C26.3405 29.0918 24.5734 29.8504 23.3408 31.0717C22.9691 31.4399 22.9663 32.0398 23.3346 32.4116C23.4226 32.5006 23.5274 32.5713 23.643 32.6195C23.7585 32.6677 23.8825 32.6924 24.0077 32.6922C24.2575 32.6925 24.4972 32.5939 24.6745 32.4178C25.552 31.5484 26.8385 30.9868 27.9524 30.9868H28.0218C29.1355 30.9868 30.4222 31.5485 31.2996 32.4178C31.6713 32.7861 32.2713 32.7834 32.6395 32.4116C33.0078 32.0399 33.005 31.4399 32.6333 31.0717Z" fill="#01A301"/>
<defs>
<filter id="filter0_di_62_11606" x="0" y="0" width="56.0544" height="56.0542" filterUnits="userSpaceOnUse" color-interpolation-filters="sRGB">
<feFlood flood-opacity="0" result="BackgroundImageFix"/>
<feColorMatrix in="SourceAlpha" type="matrix" values="0 0 0 0 0 0 0 0 0 0 0 0 0 0 0 0 0 0 127 0" result="hardAlpha"/>
<feOffset/>
<feGaussianBlur stdDeviation="2.5"/>
<feComposite in2="hardAlpha" operator="out"/>
<feColorMatrix type="matrix" values="0 0 0 0 0 0 0 0 0 0 0 0 0 0 0 0 0 0 0.25 0"/>
<feBlend mode="normal" in2="BackgroundImageFix" result="effect1_dropShadow_62_11606"/>
<feBlend mode="normal" in="SourceGraphic" in2="effect1_dropShadow_62_11606" result="shape"/>
<feColorMatrix in="SourceAlpha" type="matrix" values="0 0 0 0 0 0 0 0 0 0 0 0 0 0 0 0 0 0 127 0" result="hardAlpha"/>
<feOffset dy="2"/>
<feGaussianBlur stdDeviation="1"/>
<feComposite in2="hardAlpha" operator="arithmetic" k2="-1" k3="1"/>
<feColorMatrix type="matrix" values="0 0 0 0 0 0 0 0 0 0 0 0 0 0 0 0 0 0 0.19 0"/>
<feBlend mode="normal" in2="shape" result="effect2_innerShadow_62_11606"/>
</filter>
</defs>
</svg>
